<svg width="195" height="200" viewBox="0 0 195 200" fill="none" xmlns="http://www.w3.org/2000/svg">
<path d="M45.9985 13.3986L30.5931 1.39502C29.6043 0.624571 28.1751 0.797691 27.4009 1.78169L1.83473 34.2762C1.06053 35.2602 1.2345 36.6825 2.22329 37.453L17.6287 49.4565C18.6175 50.227 20.0467 50.0539 20.8209 49.0699L46.3871 16.5753C47.1613 15.5913 46.9873 14.1691 45.9985 13.3986Z" fill="#F5F5F5"/>
<path d="M18.1522 45.1013C18.126 45.1274 15.6252 43.2207 12.5657 40.8362C9.50627 38.4517 7.04473 36.4929 7.06655 36.4625C7.08837 36.4321 9.58919 38.3432 12.653 40.7276C15.7169 43.1121 18.174 45.0709 18.1522 45.1013Z" fill="#E0E0E0"/>
<path d="M41.3241 14.3769C41.298 14.4073 38.7971 12.4963 35.7377 10.1118C32.6782 7.72732 30.2123 5.76849 30.2385 5.73809C30.2647 5.70769 32.7611 7.61874 35.825 10.0032C38.8888 12.3877 41.346 14.3465 41.3241 14.3769Z" fill="#E0E0E0"/>
<path d="M12.2951 40.4453C12.2645 40.4193 17.5586 33.6437 24.1139 25.3133C30.6693 16.9829 36.0114 10.2421 36.0419 10.2638C36.0725 10.2855 30.7828 17.061 24.223 25.3958C17.6633 33.7306 12.3256 40.467 12.2951 40.4453Z" fill="#E0E0E0"/>
<path d="M26.9219 12.3399L28.3141 10.481L30.0599 11.7839C30.1825 11.8747 30.2859 11.9887 30.3641 12.1194C30.4424 12.25 30.4939 12.3947 30.5158 12.5453C30.5377 12.6958 30.5295 12.8491 30.4917 12.9965C30.4539 13.1438 30.3873 13.2823 30.2956 13.404C30.1113 13.6501 29.8364 13.8135 29.5312 13.8583C29.2261 13.903 28.9155 13.8256 28.6676 13.6429L26.9219 12.3399Z" fill="#EBEBEB"/>
<path d="M28.6274 10.7155L27.2351 12.5701L25.4893 11.2671C25.2383 11.0861 25.0697 10.8134 25.0206 10.5088C24.9715 10.2042 25.0459 9.89273 25.2275 9.6427C25.3187 9.52069 25.4332 9.41781 25.5645 9.33995C25.6958 9.2621 25.8412 9.2108 25.9925 9.18901C26.1437 9.16722 26.2978 9.17536 26.4459 9.21297C26.594 9.25058 26.7331 9.31691 26.8554 9.40816L28.6274 10.7155Z" fill="#E0E0E0"/>
<path d="M35.9375 19.1936L37.3298 17.3347L39.0755 18.6377C39.3231 18.8219 39.4874 19.0962 39.5324 19.4006C39.5773 19.705 39.4994 20.0147 39.3156 20.2621C39.1298 20.5078 38.8539 20.6704 38.548 20.7143C38.2422 20.7583 37.9313 20.68 37.6833 20.4966L35.9375 19.1936Z" fill="#EBEBEB"/>
<path d="M37.645 17.5649L36.2527 19.4238L34.5069 18.1208C34.3843 18.03 34.2809 17.916 34.2027 17.7854C34.1245 17.6547 34.0729 17.51 34.051 17.3595C34.0291 17.209 34.0373 17.0556 34.0751 16.9083C34.1129 16.7609 34.1796 16.6224 34.2713 16.5008V16.5008C34.3625 16.3788 34.477 16.2759 34.6083 16.198C34.7396 16.1202 34.885 16.0689 35.0363 16.0471C35.1875 16.0253 35.3416 16.0334 35.4897 16.071C35.6378 16.1086 35.7769 16.175 35.8992 16.2662L37.645 17.5649Z" fill="#E0E0E0"/>
<path d="M23.0156 17.465L24.4079 15.606L26.1537 16.909C26.4013 17.0933 26.5655 17.3675 26.6105 17.6719C26.6555 17.9763 26.5775 18.2861 26.3937 18.5334C26.2079 18.7792 25.932 18.9418 25.6262 18.9857C25.3203 19.0296 25.0094 18.9514 24.7614 18.768L23.0156 17.465Z" fill="#EBEBEB"/>
<path d="M24.7168 15.8362L23.3289 17.6952L21.5831 16.3922C21.4605 16.3014 21.3571 16.1874 21.2789 16.0567C21.2007 15.9261 21.1491 15.7814 21.1272 15.6309C21.1053 15.4803 21.1135 15.327 21.1513 15.1796C21.1891 15.0323 21.2557 14.8938 21.3474 14.7721C21.4387 14.6501 21.5532 14.5472 21.6845 14.4694C21.8158 14.3915 21.9612 14.3402 22.1125 14.3184C22.2637 14.2966 22.4178 14.3048 22.5659 14.3424C22.7139 14.38 22.8531 14.4463 22.9754 14.5376L24.7168 15.8362Z" fill="#E0E0E0"/>
<path d="M32.2363 24.4663L33.6286 22.6118L35.3744 23.9147C35.6217 24.0982 35.7858 24.3717 35.8308 24.6754C35.8758 24.9791 35.798 25.2881 35.6144 25.5348C35.5231 25.6573 35.4084 25.7606 35.2769 25.839C35.1454 25.9173 34.9997 25.969 34.848 25.9912C34.6964 26.0134 34.5419 26.0056 34.3933 25.9683C34.2447 25.9309 34.105 25.8648 33.9821 25.7737L32.2363 24.4663Z" fill="#EBEBEB"/>
<path d="M33.957 22.842L32.5691 24.7009L30.8233 23.3979C30.7007 23.3071 30.5974 23.1932 30.5191 23.0625C30.4409 22.9319 30.3893 22.7871 30.3674 22.6366C30.3456 22.4861 30.3537 22.3328 30.3915 22.1854C30.4293 22.038 30.496 21.8996 30.5877 21.7779V21.7779C30.772 21.5318 31.0469 21.3684 31.352 21.3236C31.6572 21.2788 31.9677 21.3563 32.2156 21.539L33.957 22.842Z" fill="#E0E0E0"/>
<path d="M19.1172 22.5857L20.5094 20.7268L22.2552 22.0298C22.3778 22.1206 22.4812 22.2346 22.5594 22.3652C22.6377 22.4959 22.6892 22.6406 22.7111 22.7911C22.733 22.9416 22.7248 23.095 22.687 23.2423C22.6492 23.3897 22.5826 23.5282 22.4909 23.6498C22.3066 23.896 22.0317 24.0593 21.7265 24.1041C21.4214 24.1489 21.1108 24.0714 20.863 23.8887L19.1172 22.5857Z" fill="#EBEBEB"/>
<path d="M20.8118 20.97L19.4196 22.8289L17.6738 21.526C17.5509 21.4355 17.4471 21.3217 17.3685 21.1912C17.2898 21.0608 17.2378 20.9161 17.2155 20.7656C17.1932 20.615 17.201 20.4616 17.2385 20.3141C17.2759 20.1665 17.3423 20.0278 17.4338 19.9059V19.9059C17.6178 19.6635 17.8901 19.5027 18.1921 19.458C18.4941 19.4133 18.8016 19.4884 19.0486 19.667L20.8118 20.97Z" fill="#E0E0E0"/>
<path d="M28.5352 29.7434L29.923 27.8845L31.6688 29.1875C31.7914 29.2783 31.8948 29.3923 31.973 29.5229C32.0513 29.6536 32.1028 29.7983 32.1247 29.9488C32.1466 30.0993 32.1384 30.2527 32.1006 30.4C32.0628 30.5474 31.9962 30.6859 31.9045 30.8076V30.8076C31.7202 31.0537 31.4453 31.217 31.1401 31.2618C30.835 31.3066 30.5244 31.2291 30.2766 31.0464L28.5352 29.7434Z" fill="#EBEBEB"/>
<path d="M30.2386 28.1191L28.8464 29.978L27.1006 28.675C26.9765 28.5851 26.8715 28.4717 26.7916 28.3413C26.7116 28.2109 26.6584 28.0661 26.6349 27.9152C26.6113 27.7642 26.618 27.6102 26.6545 27.4618C26.691 27.3134 26.7566 27.1737 26.8475 27.0506V27.0506C27.0326 26.8042 27.3082 26.6408 27.6141 26.596C27.9199 26.5512 28.2312 26.6288 28.4798 26.8118L30.2386 28.1191Z" fill="#E0E0E0"/>
<path d="M14.6738 27.8498L16.0617 25.9908L17.8075 27.2938C17.9301 27.3846 18.0335 27.4986 18.1117 27.6293C18.1899 27.7599 18.2415 27.9046 18.2634 28.0552C18.2853 28.2057 18.2771 28.359 18.2393 28.5064C18.2015 28.6537 18.1349 28.7922 18.0432 28.9139V28.9139C17.9519 29.0359 17.8374 29.1388 17.7061 29.2166C17.5748 29.2945 17.4294 29.3458 17.2781 29.3676C17.1269 29.3894 16.9728 29.3812 16.8247 29.3436C16.6767 29.306 16.5375 29.2397 16.4152 29.1484L14.6738 27.8498Z" fill="#EBEBEB"/>
<path d="M16.3771 26.2211L14.9849 28.08L13.2391 26.777C12.9928 26.5915 12.8303 26.3166 12.787 26.0123C12.7436 25.7079 12.823 25.3989 13.0078 25.1526V25.1526C13.1935 24.9069 13.4695 24.7443 13.7753 24.7003C14.0811 24.6564 14.392 24.7347 14.6401 24.9181L16.3771 26.2211Z" fill="#E0E0E0"/>
<path d="M24.1797 34.899L25.5719 33.04L27.3177 34.343C27.4407 34.4335 27.5444 34.5472 27.6231 34.6777C27.7017 34.8082 27.7537 34.9529 27.776 35.1034C27.7983 35.2539 27.7905 35.4074 27.753 35.5549C27.7156 35.7024 27.6492 35.8411 27.5578 35.9631V35.9631C27.4665 36.0851 27.352 36.188 27.2207 36.2658C27.0894 36.3437 26.944 36.395 26.7927 36.4168C26.6415 36.4386 26.4874 36.4304 26.3393 36.3928C26.1912 36.3552 26.0521 36.2889 25.9298 36.1976L24.1797 34.899Z" fill="#EBEBEB"/>
<path d="M25.8877 33.2745L24.4955 35.1291L22.7497 33.8261C22.5028 33.6413 22.3394 33.3667 22.2952 33.0623C22.2511 32.758 22.3297 32.4486 22.514 32.2018V32.2018C22.6052 32.0797 22.7198 31.9769 22.8511 31.899C22.9824 31.8212 23.1278 31.7699 23.279 31.7481C23.4303 31.7263 23.5844 31.7344 23.7324 31.772C23.8805 31.8096 24.0197 31.876 24.1419 31.9672L25.8877 33.2745Z" fill="#E0E0E0"/>
<path d="M10.7559 33.7784L12.135 31.9195L13.8808 33.2225C14.1277 33.4073 14.2911 33.6819 14.3353 33.9863C14.3794 34.2906 14.3008 34.6 14.1165 34.8468V34.8468C14.0252 34.9689 13.9107 35.0717 13.7794 35.1496C13.6481 35.2274 13.5027 35.2787 13.3514 35.3005C13.2002 35.3223 13.0461 35.3142 12.898 35.2766C12.75 35.239 12.6108 35.1726 12.4885 35.0814L10.7559 33.7784Z" fill="#EBEBEB"/>
<path d="M12.4612 32.1497L11.069 33.9999L9.3232 32.6969C9.07645 32.5142 8.91229 32.2418 8.8665 31.9392C8.82072 31.6365 8.89703 31.3281 9.07879 31.0812C9.17002 30.9592 9.28457 30.8563 9.41585 30.7785C9.54713 30.7006 9.69257 30.6493 9.84381 30.6275C9.99506 30.6057 10.1491 30.6139 10.2972 30.6515C10.4453 30.6891 10.5845 30.7554 10.7067 30.8467L12.4612 32.1497Z" fill="#E0E0E0"/>
<path d="M19.8027 40.4844L21.195 38.6255L22.9408 39.9285C23.0637 40.0189 23.1675 40.1327 23.2461 40.2632C23.3248 40.3937 23.3767 40.5383 23.399 40.6889C23.4213 40.8394 23.4135 40.9928 23.3761 41.1404C23.3386 41.2879 23.2723 41.4266 23.1808 41.5485V41.5485C23.0896 41.6705 22.975 41.7734 22.8437 41.8513C22.7125 41.9291 22.567 41.9804 22.4158 42.0022C22.2645 42.024 22.1104 42.0159 21.9624 41.9783C21.8143 41.9406 21.6751 41.8743 21.5529 41.7831L19.8027 40.4844Z" fill="#EBEBEB"/>
<path d="M21.5088 38.8557L20.1166 40.7146L18.3708 39.4116C18.1239 39.2268 17.9605 38.9522 17.9163 38.6478C17.8721 38.3434 17.9508 38.0341 18.1351 37.7872V37.7872C18.2263 37.6652 18.3409 37.5623 18.4722 37.4845C18.6034 37.4066 18.7489 37.3553 18.9001 37.3335C19.0514 37.3118 19.2055 37.3199 19.3535 37.3575C19.5016 37.3951 19.6408 37.4614 19.763 37.5527L21.5088 38.8557Z" fill="#E0E0E0"/>
<path d="M193.459 122.368L165.422 131.876C165.139 131.972 164.84 132.011 164.542 131.991C164.244 131.972 163.953 131.894 163.685 131.763C163.417 131.631 163.178 131.449 162.981 131.225C162.784 131.002 162.633 130.742 162.537 130.46L142.98 73.3284C142.883 73.0469 142.843 72.7492 142.862 72.4523C142.881 72.1554 142.958 71.8651 143.09 71.598C143.222 71.331 143.405 71.0924 143.63 70.8959C143.854 70.6995 144.115 70.549 144.399 70.4531L172.436 60.95C173.006 60.7567 173.631 60.7968 174.172 61.0615C174.713 61.3262 175.126 61.7938 175.321 62.3616L194.878 119.498C194.974 119.779 195.014 120.076 194.995 120.373C194.977 120.669 194.899 120.959 194.767 121.226C194.635 121.493 194.452 121.731 194.228 121.927C194.003 122.123 193.742 122.273 193.459 122.368V122.368Z" fill="#EBEBEB"/>
<path d="M157.217 78.3623C157.377 78.8281 157.394 79.3308 157.267 79.8066C157.14 80.2824 156.874 80.71 156.503 81.0353C156.132 81.3607 155.672 81.5691 155.181 81.6342C154.691 81.6994 154.192 81.6183 153.748 81.4013C153.304 81.1843 152.935 80.8411 152.687 80.4151C152.439 79.9891 152.323 79.4995 152.355 79.0082C152.386 78.5169 152.564 78.0459 152.864 77.6549C153.165 77.264 153.576 76.9705 154.044 76.8117C154.671 76.599 155.358 76.6428 155.953 76.9335C156.548 77.2243 157.002 77.7381 157.217 78.3623V78.3623Z" fill="#FAFAFA"/>
<path d="M170.965 73.7019C171.124 74.167 171.141 74.6686 171.014 75.1434C170.887 75.6181 170.621 76.0446 170.25 76.3689C169.879 76.6933 169.42 76.9009 168.931 76.9656C168.441 77.0303 167.943 76.9491 167.5 76.7323C167.057 76.5155 166.689 76.1728 166.441 75.7475C166.194 75.3223 166.079 74.8337 166.111 74.3433C166.142 73.853 166.319 73.3831 166.619 72.9929C166.92 72.6027 167.329 72.3099 167.796 72.1513C168.107 72.0461 168.435 72.0027 168.762 72.0236C169.089 72.0446 169.409 72.1295 169.704 72.2735C169.998 72.4174 170.261 72.6177 170.477 72.8628C170.694 73.1079 170.859 73.393 170.965 73.7019V73.7019Z" fill="#FAFAFA"/>
<path d="M161.569 91.0838C161.728 91.5489 161.745 92.0505 161.618 92.5252C161.49 93 161.224 93.4265 160.853 93.7508C160.483 94.0752 160.023 94.2828 159.534 94.3475C159.045 94.4122 158.547 94.3309 158.104 94.1141C157.661 93.8973 157.292 93.5546 157.045 93.1294C156.798 92.7042 156.682 92.2155 156.714 91.7252C156.746 91.2349 156.923 90.7649 157.223 90.3748C157.523 89.9846 157.933 89.6917 158.4 89.5332C158.71 89.4274 159.039 89.3835 159.366 89.4042C159.693 89.4249 160.013 89.5097 160.308 89.6537C160.602 89.7978 160.865 89.9983 161.081 90.2437C161.298 90.4891 161.463 90.7746 161.569 91.0838V91.0838Z" fill="#FAFAFA"/>
<path d="M175.321 86.4234C175.48 86.8885 175.497 87.3901 175.369 87.8649C175.242 88.3396 174.976 88.7661 174.605 89.0905C174.235 89.4148 173.775 89.6225 173.286 89.6871C172.797 89.7518 172.299 89.6706 171.856 89.4538C171.413 89.237 171.044 88.8943 170.797 88.4691C170.549 88.0438 170.434 87.5552 170.466 87.0649C170.498 86.5745 170.675 86.1046 170.975 85.7144C171.275 85.3242 171.685 85.0314 172.152 84.8729C172.462 84.7676 172.79 84.7242 173.118 84.7451C173.445 84.7661 173.765 84.851 174.059 84.995C174.353 85.139 174.616 85.3392 174.833 85.5843C175.049 85.8294 175.215 86.1145 175.321 86.4234Z" fill="#FAFAFA"/>
<path d="M165.924 103.81C166.083 104.275 166.1 104.776 165.973 105.251C165.846 105.726 165.58 106.152 165.209 106.477C164.838 106.801 164.379 107.009 163.89 107.073C163.4 107.138 162.902 107.057 162.459 106.84C162.016 106.623 161.648 106.28 161.4 105.855C161.153 105.43 161.038 104.941 161.07 104.451C161.101 103.961 161.278 103.491 161.578 103.101C161.879 102.71 162.288 102.418 162.755 102.259C163.066 102.154 163.394 102.11 163.721 102.131C164.048 102.152 164.368 102.237 164.663 102.381C164.957 102.525 165.22 102.725 165.436 102.971C165.653 103.216 165.818 103.501 165.924 103.81V103.81Z" fill="#FAFAFA"/>
<path d="M179.676 99.1493C179.835 99.6144 179.852 100.116 179.725 100.591C179.598 101.065 179.332 101.492 178.961 101.816C178.59 102.141 178.131 102.348 177.641 102.413C177.152 102.478 176.654 102.396 176.211 102.18C175.768 101.963 175.4 101.62 175.152 101.195C174.905 100.77 174.79 100.281 174.822 99.7907C174.853 99.3004 175.03 98.8304 175.33 98.4402C175.631 98.0501 176.04 97.7572 176.507 97.5987C176.818 97.4934 177.146 97.45 177.473 97.471C177.8 97.4919 178.12 97.5768 178.414 97.7208C178.709 97.8648 178.972 98.0651 179.188 98.3102C179.404 98.5552 179.57 98.8404 179.676 99.1493V99.1493Z" fill="#FAFAFA"/>
<path d="M170.28 116.522C170.439 116.988 170.456 117.489 170.328 117.964C170.201 118.439 169.935 118.865 169.564 119.189C169.194 119.514 168.734 119.721 168.245 119.786C167.756 119.851 167.258 119.77 166.815 119.553C166.372 119.336 166.003 118.993 165.756 118.568C165.508 118.143 165.393 117.654 165.425 117.164C165.457 116.674 165.634 116.204 165.934 115.813C166.234 115.423 166.644 115.13 167.111 114.972C167.421 114.867 167.749 114.823 168.077 114.844C168.404 114.865 168.724 114.95 169.018 115.094C169.312 115.238 169.575 115.438 169.792 115.683C170.008 115.928 170.174 116.214 170.28 116.522Z" fill="#FAFAFA"/>
<path d="M184.031 111.871C184.191 112.336 184.208 112.838 184.08 113.312C183.953 113.787 183.687 114.213 183.316 114.538C182.946 114.862 182.486 115.07 181.997 115.134C181.507 115.199 181.01 115.118 180.567 114.901C180.124 114.684 179.755 114.342 179.508 113.916C179.26 113.491 179.145 113.003 179.177 112.512C179.209 112.022 179.386 111.552 179.686 111.162C179.986 110.772 180.396 110.479 180.863 110.32C181.173 110.215 181.501 110.172 181.829 110.193C182.156 110.213 182.476 110.298 182.77 110.442C183.064 110.586 183.327 110.787 183.543 111.032C183.76 111.277 183.926 111.562 184.031 111.871V111.871Z" fill="#FAFAFA"/>
<path d="M155.879 77.0289C155.612 77.7639 155.285 78.4758 154.901 79.1571C154.577 79.8695 154.191 80.5526 153.748 81.1984C154.014 80.4634 154.341 79.7515 154.726 79.0702C155.049 78.3574 155.435 77.6743 155.879 77.0289V77.0289Z" fill="#E0E0E0"/>
<path d="M169.341 72.3512C169.077 73.0877 168.751 73.801 168.367 74.4837C168.04 75.1946 167.655 75.8773 167.215 76.5251C167.48 75.7889 167.806 75.0757 168.188 74.3925C168.517 73.6823 168.902 72.9996 169.341 72.3512V72.3512Z" fill="#E0E0E0"/>
<path d="M160.36 89.7504C160.131 90.5183 159.839 91.2664 159.487 91.9872C159.2 92.7392 158.85 93.4657 158.439 94.1588C158.671 93.3914 158.962 92.6434 159.313 91.922C159.601 91.1704 159.951 90.444 160.36 89.7504V89.7504Z" fill="#E0E0E0"/>
<path d="M173.942 85.0596C173.758 85.8037 173.51 86.5304 173.199 87.2313C172.95 87.9583 172.639 88.663 172.27 89.3378C172.453 88.5939 172.702 87.8673 173.012 87.1661C173.263 86.4399 173.574 85.7354 173.942 85.0596V85.0596Z" fill="#E0E0E0"/>
<path d="M164.305 102.42C163.846 103.81 163.261 105.156 162.559 106.442C163.018 105.051 163.602 103.705 164.305 102.42V102.42Z" fill="#E0E0E0"/>
<path d="M178.39 97.9722C177.813 99.343 177.114 100.66 176.303 101.907C176.559 101.209 176.879 100.536 177.259 99.8963C177.58 99.2241 177.958 98.5805 178.39 97.9722V97.9722Z" fill="#E0E0E0"/>
<path d="M169.033 115.324C168.748 116.048 168.402 116.747 167.998 117.413C167.653 118.11 167.248 118.777 166.789 119.406C167.419 117.985 168.17 116.619 169.033 115.324V115.324Z" fill="#E0E0E0"/>
<path d="M182.754 110.251C182.526 111.067 182.234 111.864 181.881 112.635C181.59 113.43 181.237 114.202 180.824 114.941C181.052 114.125 181.344 113.328 181.697 112.557C181.987 111.761 182.34 110.99 182.754 110.251V110.251Z" fill="#E0E0E0"/>
<path d="M187.767 118.694C187.767 118.746 183.573 120.219 178.362 121.986C173.151 123.754 168.904 125.144 168.887 125.092C168.869 125.04 173.081 123.567 178.296 121.8C183.512 120.032 187.75 118.633 187.767 118.694Z" fill="#E0E0E0"/>
<path d="M169.08 67.5344C169.08 67.5822 164.886 69.0589 159.67 70.8266C154.455 72.5944 150.217 73.9842 150.199 73.9321C150.182 73.88 154.393 72.4076 159.609 70.6399C164.824 68.8722 169.062 67.4823 169.08 67.5344Z" fill="#E0E0E0"/>
<path d="M159.909 73.285C159.885 73.2914 159.859 73.2914 159.835 73.285H159.809L160.001 73.2242C160.001 73.2546 160.001 73.298 159.931 73.3154C159.861 73.3327 159.826 73.3154 159.813 73.285L160.005 73.2242C160.005 73.2242 160.005 73.2459 160.005 73.2502C159.993 73.2628 159.978 73.2725 159.961 73.2785C159.944 73.2845 159.927 73.2867 159.909 73.285V73.285Z" fill="#E0E0E0"/>
<path d="M177.686 121.991C177.633 121.991 173.653 110.516 168.791 96.3218C163.929 82.1279 160.036 70.6008 160.088 70.5834C160.141 70.5661 164.121 82.0584 168.979 96.2566C173.836 110.455 177.738 121.973 177.686 121.991Z" fill="#E0E0E0"/>
<path d="M73.791 196.907L75.288 174.537L119.223 177.448C119.949 177.496 120.625 177.829 121.104 178.374C121.583 178.918 121.824 179.629 121.776 180.351L120.643 197.278C120.595 198 120.261 198.673 119.714 199.15C119.167 199.626 118.452 199.867 117.726 199.819L73.791 196.907Z" fill="#F5F5F5"/>
<path d="M87.5365 183.695L86.5957 197.754L106.793 199.092L107.734 185.034L87.5365 183.695Z" fill="#E0E0E0"/>
<path d="M71.1973 173.239L69.5199 198.305C69.4863 198.808 69.8684 199.242 70.3735 199.276L76.3483 199.672C76.8533 199.705 77.29 199.325 77.3237 198.822L79.0011 173.756C79.0347 173.254 78.6525 172.819 78.1475 172.786L72.1727 172.39C71.6676 172.356 71.2309 172.736 71.1973 173.239Z" fill="#EBEBEB"/>
<path d="M77.409 197.594C76.098 197.628 74.7862 197.582 73.481 197.455C72.1768 197.408 70.8767 197.282 69.5879 197.077C70.8988 197.044 72.2107 197.09 73.5159 197.216C74.8201 197.264 76.1202 197.39 77.409 197.594V197.594Z" fill="#E0E0E0"/>
<path d="M77.5531 195.423C76.2494 195.459 74.9448 195.412 73.647 195.284C72.3428 195.236 71.0427 195.11 69.7539 194.906C71.0576 194.875 72.3619 194.922 73.6601 195.045C74.9643 195.092 76.2644 195.218 77.5531 195.423V195.423Z" fill="#E0E0E0"/>
<path d="M77.7019 193.255C76.391 193.289 75.0792 193.243 73.7739 193.116C72.4697 193.069 71.1696 192.943 69.8809 192.739C71.1918 192.705 72.5036 192.751 73.8088 192.877C75.113 192.925 76.4131 193.051 77.7019 193.255V193.255Z" fill="#E0E0E0"/>
<path d="M77.8445 191.084C76.5335 191.118 75.2217 191.071 73.9165 190.945C72.6123 190.897 71.3122 190.771 70.0234 190.567C71.3344 190.536 72.646 190.582 73.9514 190.706C75.2556 190.753 76.5557 190.879 77.8445 191.084V191.084Z" fill="#E0E0E0"/>
<path d="M77.9892 188.916C76.6855 188.95 75.381 188.903 74.083 188.777C72.7774 188.73 71.4758 188.604 70.1855 188.4C71.4965 188.366 72.8083 188.412 74.1135 188.539C75.4119 188.587 76.7061 188.713 77.9892 188.916V188.916Z" fill="#E0E0E0"/>
<path d="M78.1375 186.745C76.8265 186.779 75.5147 186.732 74.2095 186.606C72.9053 186.559 71.6052 186.432 70.3164 186.228C71.6273 186.196 72.939 186.243 74.2444 186.367C75.5486 186.414 76.8486 186.541 78.1375 186.745V186.745Z" fill="#E0E0E0"/>
<path d="M78.282 184.577C76.971 184.611 75.6592 184.565 74.354 184.438C73.0498 184.391 71.7497 184.265 70.4609 184.061C71.7719 184.027 73.0837 184.073 74.3889 184.2C75.6931 184.247 76.9932 184.373 78.282 184.577V184.577Z" fill="#E0E0E0"/>
<path d="M78.4265 182.406C77.1156 182.44 75.8038 182.393 74.4985 182.267C73.1944 182.219 71.8943 182.093 70.6055 181.889C71.9164 181.858 73.2281 181.904 74.5335 182.028C75.8376 182.075 77.1377 182.201 78.4265 182.406V182.406Z" fill="#E0E0E0"/>
<path d="M78.5707 180.239C77.267 180.272 75.9625 180.225 74.6646 180.1C73.3604 180.052 72.0603 179.926 70.7715 179.722C72.0824 179.688 73.3943 179.734 74.6995 179.861C75.9964 179.909 77.2891 180.035 78.5707 180.239V180.239Z" fill="#E0E0E0"/>
<path d="M78.7175 178.067C77.4066 178.101 76.0948 178.054 74.7896 177.928C73.4854 177.881 72.1853 177.754 70.8965 177.55C72.2074 177.519 73.5191 177.565 74.8245 177.689C76.1286 177.737 77.4287 177.863 78.7175 178.067V178.067Z" fill="#E0E0E0"/>
<path d="M78.8621 175.9C77.5511 175.933 76.2393 175.887 74.9341 175.761C73.6299 175.713 72.3298 175.587 71.041 175.383C72.352 175.349 73.6638 175.395 74.969 175.522C76.2732 175.569 77.5733 175.695 78.8621 175.9V175.9Z" fill="#E0E0E0"/>
<path d="M79.0067 173.728C77.703 173.761 76.3985 173.715 75.1006 173.589C73.7949 173.542 72.4934 173.415 71.2031 173.211C72.5141 173.177 73.8259 173.224 75.1311 173.35C76.4295 173.398 77.7237 173.524 79.0067 173.728V173.728Z" fill="#E0E0E0"/>
<path d="M116.332 195.431L115.065 195.347C114.718 195.324 114.395 195.165 114.167 194.905C113.938 194.645 113.822 194.306 113.845 193.961L114.133 189.67L118.052 189.93L117.765 194.22C117.753 194.395 117.707 194.564 117.628 194.72C117.549 194.876 117.44 195.015 117.306 195.128C117.172 195.24 117.017 195.326 116.85 195.378C116.683 195.43 116.507 195.448 116.332 195.431V195.431Z" fill="#EBEBEB"/>
<path d="M115.358 185.659L116.667 185.75C117.015 185.774 117.338 185.935 117.566 186.196C117.795 186.458 117.909 186.799 117.885 187.144L117.583 191.444L113.655 191.171L113.957 186.871C113.981 186.525 114.143 186.203 114.405 185.976C114.668 185.749 115.011 185.635 115.358 185.659Z" fill="#E0E0E0"/>
<path d="M107.143 181.674L106.813 182.9C106.722 183.235 106.502 183.521 106.2 183.695C105.898 183.868 105.539 183.915 105.202 183.825L101.011 182.707L102.032 178.916L106.224 180.033C106.394 180.079 106.553 180.158 106.692 180.265C106.831 180.373 106.946 180.507 107.032 180.66C107.118 180.813 107.172 180.982 107.191 181.156C107.21 181.33 107.194 181.506 107.143 181.674V181.674Z" fill="#EBEBEB"/>
<path d="M97.4744 179.98L97.8029 178.759C97.8927 178.426 98.1121 178.141 98.4128 177.968C98.7135 177.795 99.0709 177.748 99.4063 177.838L103.58 178.95L102.564 182.726L98.3903 181.614C98.221 181.569 98.0625 181.49 97.9241 181.383C97.7858 181.276 97.6705 181.142 97.5851 180.99C97.4997 180.837 97.4458 180.67 97.4268 180.496C97.4078 180.323 97.424 180.147 97.4744 179.98V179.98Z" fill="#E0E0E0"/>
<path d="M119.407 179.675L119.749 180.888C119.843 181.22 119.801 181.575 119.631 181.875C119.462 182.176 119.179 182.397 118.846 182.491L114.698 183.652L113.637 179.899L117.785 178.738C117.954 178.691 118.13 178.678 118.303 178.7C118.477 178.721 118.644 178.778 118.795 178.865C118.946 178.952 119.078 179.069 119.183 179.208C119.288 179.347 119.364 179.506 119.407 179.675V179.675Z" fill="#EBEBEB"/>
<path d="M107.521 183.649L107.178 182.435C107.085 182.104 107.127 181.748 107.296 181.448C107.466 181.147 107.748 180.926 108.082 180.833L112.246 179.667L113.307 183.42L109.159 184.581C108.99 184.631 108.813 184.646 108.637 184.625C108.462 184.605 108.293 184.55 108.14 184.463C107.987 184.376 107.853 184.259 107.747 184.119C107.641 183.979 107.564 183.819 107.521 183.649Z" fill="#E0E0E0"/>
<path d="M109.335 195.214L108.159 194.736C107.837 194.606 107.581 194.353 107.446 194.035C107.311 193.716 107.309 193.357 107.441 193.037L109.072 189.056L112.71 190.533L111.079 194.514C110.947 194.834 110.694 195.089 110.374 195.223C110.053 195.357 109.693 195.359 109.371 195.228L109.335 195.214Z" fill="#EBEBEB"/>
<path d="M112.171 184.945L113.347 185.423C113.669 185.553 113.925 185.805 114.06 186.124C114.194 186.443 114.196 186.801 114.065 187.121L112.433 191.103L108.795 189.626L110.427 185.645C110.493 185.483 110.591 185.336 110.716 185.213C110.84 185.09 110.987 184.993 111.15 184.928C111.313 184.862 111.487 184.83 111.662 184.833C111.837 184.836 112.01 184.874 112.171 184.945V184.945Z" fill="#E0E0E0"/>
<path d="M170.233 24.4446L173.183 28.1799C173.237 28.25 173.261 28.3383 173.25 28.4259C173.24 28.5135 173.195 28.5935 173.126 28.6489L169.333 31.5807C169.052 31.7994 168.729 31.9607 168.385 32.0553C168.04 32.1498 167.68 32.1759 167.325 32.1319C166.971 32.088 166.628 31.9748 166.318 31.799C166.007 31.6232 165.734 31.3881 165.515 31.1072V31.1072C165.295 30.8264 165.133 30.5052 165.037 30.1619C164.942 29.8187 164.916 29.4601 164.96 29.1068C165.004 28.7535 165.118 28.4122 165.295 28.1027C165.472 27.7931 165.708 27.5212 165.99 27.3025L169.783 24.3708C169.854 24.3257 169.939 24.3082 170.022 24.3218C170.105 24.3355 170.18 24.3792 170.233 24.4446V24.4446Z" fill="#EBEBEB"/>
<path d="M172.44 28.7358L169.507 24.9876C169.48 24.9528 169.461 24.913 169.449 24.8706C169.438 24.8282 169.435 24.784 169.44 24.7404C169.446 24.6969 169.46 24.6548 169.482 24.6168C169.504 24.5787 169.534 24.5453 169.568 24.5185L173.357 21.5868C173.639 21.368 173.961 21.2068 174.306 21.1122C174.65 21.0176 175.01 20.9915 175.365 21.0355C175.72 21.0795 176.062 21.1926 176.373 21.3684C176.684 21.5443 176.956 21.7793 177.176 22.0602C177.396 22.341 177.558 22.6623 177.653 23.0055C177.748 23.3488 177.774 23.7073 177.73 24.0606C177.686 24.414 177.572 24.7552 177.395 25.0648C177.219 25.3743 176.982 25.6462 176.7 25.8649L172.912 28.7879C172.842 28.8431 172.753 28.8685 172.665 28.8587C172.577 28.849 172.496 28.8048 172.44 28.7358V28.7358Z" fill="#E0E0E0"/>
<path d="M2.23588 113.378L6.72688 115.002C6.81126 115.034 6.87976 115.097 6.91738 115.178C6.95501 115.26 6.9587 115.353 6.92765 115.437L5.28662 119.923C5.16476 120.258 4.97773 120.566 4.73624 120.829C4.49475 121.092 4.20354 121.305 3.87925 121.456C3.55497 121.607 3.20397 121.692 2.84635 121.708C2.48873 121.724 2.13149 121.669 1.79507 121.548V121.548C1.11601 121.302 0.562734 120.798 0.256702 120.146C-0.0493311 119.495 -0.0831114 118.749 0.162776 118.073L1.8038 113.586C1.81802 113.544 1.84056 113.505 1.87009 113.472C1.89963 113.438 1.93557 113.411 1.97581 113.392C2.01605 113.372 2.05979 113.361 2.10444 113.359C2.1491 113.356 2.19379 113.363 2.23588 113.378V113.378Z" fill="#EBEBEB"/>
<path d="M6.41207 115.858L1.92544 114.234C1.88293 114.219 1.84383 114.196 1.8105 114.166C1.77717 114.136 1.7503 114.1 1.73152 114.059C1.71275 114.019 1.70246 113.975 1.70129 113.93C1.70011 113.885 1.70806 113.841 1.72467 113.799L3.3657 109.308C3.48751 108.973 3.67456 108.666 3.91613 108.403C4.15771 108.14 4.44904 107.927 4.77343 107.777C5.09782 107.626 5.44888 107.541 5.80647 107.526C6.16406 107.51 6.52114 107.566 6.85724 107.688V107.688C7.19379 107.809 7.50298 107.996 7.76708 108.236C8.03117 108.476 8.24498 108.766 8.39622 109.089C8.54747 109.412 8.63318 109.761 8.64845 110.117C8.66371 110.473 8.60823 110.828 8.48517 111.163L6.84415 115.654C6.81357 115.737 6.75107 115.806 6.6702 115.844C6.58933 115.882 6.49659 115.887 6.41207 115.858V115.858Z" fill="#E0E0E0"/>
<path d="M190.639 199.453C190.639 199.518 148.811 199.566 97.2406 199.566C45.6705 199.566 3.8418 199.518 3.8418 199.453C3.8418 199.388 45.6618 199.34 97.2624 199.34C148.863 199.34 190.639 199.392 190.639 199.453Z" fill="#092841"/>
<path d="M154.978 7.57965H49.8085C47.374 7.57965 45.4004 9.54366 45.4004 11.9664V153.015C45.4004 155.437 47.374 157.402 49.8085 157.402H154.978C157.413 157.402 159.386 155.437 159.386 153.015V11.9664C159.386 9.54366 157.413 7.57965 154.978 7.57965Z" fill="#455A64"/>
<path d="M151.748 14.6592H53.0293V147.108H151.748V14.6592Z" fill="white"/>
<path d="M151.754 147.108C151.754 146.204 151.71 93.0817 151.649 14.6375L151.754 14.7374H53.0433L53.1568 14.6245C53.1568 64.0207 53.1568 109.79 53.1568 147.095L53.0607 146.999L151.784 147.095L53.0607 147.186H52.9691V147.095C52.9691 109.812 52.9691 64.0424 52.9473 14.6245V14.5115H53.0738H151.784H151.885V14.6158C151.797 93.0687 151.754 146.204 151.754 147.108Z" fill="#092841"/>
<path d="M73.8123 36.8882L71.5122 33.4439H68.9678V36.8882H66.2051V24.5272H71.3726C72.3213 24.5047 73.2633 24.6916 74.1309 25.0744C74.8691 25.4019 75.4944 25.9381 75.929 26.6163C76.3652 27.3343 76.5849 28.162 76.5619 29.0008C76.5885 29.8438 76.3654 30.6761 75.9203 31.3939C75.4817 32.0684 74.8512 32.5977 74.1091 32.9141L76.7888 36.8882H73.8123ZM73.114 27.4155C72.5709 27.0082 71.898 26.8107 71.2198 26.8595H68.9678V31.1681H71.2198C71.8998 31.2147 72.5735 31.0124 73.114 30.5991C73.5312 30.1732 73.7647 29.602 73.7647 29.0073C73.7647 28.4125 73.5312 27.8413 73.114 27.4155V27.4155Z" fill="#428ECD"/>
<path d="M79.8569 45.4314L77.1248 41.3835L74.4407 45.4488H71.4336L75.6235 39.4942L71.6431 33.7393H74.6196L77.2383 37.5353L79.7828 33.7219H82.6109L78.6829 39.3682L82.9033 45.4228L79.8569 45.4314Z" fill="#428ECD"/>
<path d="M117.47 27.4806H100.527V31.6545H117.47V27.4806Z" fill="#E0E0E0"/>
<path d="M142.318 30.117C142.318 30.1821 137.683 30.2299 131.965 30.2299C126.248 30.2299 121.617 30.1821 121.617 30.117C121.617 30.0518 126.248 30.0041 131.965 30.0041C137.683 30.0041 142.318 30.0562 142.318 30.117Z" fill="#092841"/>
<path d="M141.928 35.1248C141.928 35.1856 132.658 35.2377 121.228 35.2377C109.797 35.2377 100.527 35.1856 100.527 35.1248C100.527 35.064 109.793 35.0075 121.228 35.0075C132.663 35.0075 141.928 35.0597 141.928 35.1248Z" fill="#092841"/>
<path d="M141.928 40.0284C141.928 40.0892 132.658 40.1413 121.228 40.1413C109.797 40.1413 100.527 40.0892 100.527 40.0284C100.527 39.9676 109.793 39.9155 121.228 39.9155C132.663 39.9155 141.928 39.9632 141.928 40.0284Z" fill="#092841"/>
<path d="M148.388 53.1104C148.388 53.1712 127.792 53.2233 102.395 53.2233C76.9986 53.2233 56.3984 53.1712 56.3984 53.1104C56.3984 53.0496 76.9855 52.9931 102.395 52.9931C127.805 52.9931 148.388 53.0365 148.388 53.1104Z" fill="#092841"/>
<path d="M148.388 127.146C148.388 127.207 127.792 127.259 102.395 127.259C76.9986 127.259 56.3984 127.207 56.3984 127.146C56.3984 127.085 76.9855 127.033 102.395 127.033C127.805 127.033 148.388 127.081 148.388 127.146Z" fill="#092841"/>
<path d="M92.3565 60.5939H63.9746V65.8927H92.3565V60.5939Z" fill="#E0E0E0"/>
<path d="M76.2605 134.703H63.9746V140.002H76.2605V134.703Z" fill="#E0E0E0"/>
<path d="M117.514 134.703H105.229V140.002H117.514V134.703Z" fill="#E0E0E0"/>
<path d="M96.852 138.374C96.852 138.439 93.0157 138.486 88.2846 138.486C83.5536 138.486 79.7129 138.439 79.7129 138.374C79.7129 138.308 83.5492 138.261 88.2846 138.261C93.02 138.261 96.852 138.313 96.852 138.374Z" fill="#092841"/>
<path d="M140.969 138.374C140.969 138.439 137.133 138.486 132.402 138.486C127.671 138.486 123.83 138.439 123.83 138.374C123.83 138.308 127.666 138.261 132.402 138.261C137.137 138.261 140.969 138.313 140.969 138.374Z" fill="#092841"/>
<path d="M139.951 73.8713C139.951 73.9321 123.135 73.9842 102.417 73.9842C81.699 73.9842 64.8828 73.9321 64.8828 73.8713C64.8828 73.8105 81.6902 73.7584 102.417 73.7584C123.144 73.7584 139.951 73.8061 139.951 73.8713Z" fill="#092841"/>
<path d="M141.41 79.9172C141.41 79.9823 124.271 80.0301 103.134 80.0301C81.997 80.0301 64.8535 79.9823 64.8535 79.9172C64.8535 79.852 81.9883 79.8043 103.134 79.8043C124.28 79.8043 141.41 79.8564 141.41 79.9172Z" fill="#092841"/>
<path d="M101.963 85.9674C101.963 86.0282 93.4563 86.0803 82.9686 86.0803C72.4809 86.0803 63.9746 86.0282 63.9746 85.9674C63.9746 85.9065 72.4765 85.8544 82.9686 85.8544C93.4607 85.8544 101.963 85.9022 101.963 85.9674Z" fill="#092841"/>
<path d="M140.846 107.901C140.846 107.901 140.763 107.936 140.592 107.988L139.85 108.214C138.892 108.498 137.917 108.724 136.931 108.891C136.219 109.016 135.498 109.084 134.775 109.095C133.91 109.112 133.047 109.006 132.213 108.778C131.252 108.505 130.366 108.016 129.625 107.349C128.788 106.589 128.238 105.567 128.066 104.452C127.977 103.85 128.051 103.236 128.28 102.672C128.538 102.085 128.959 101.585 129.494 101.23C129.77 101.039 130.082 100.905 130.411 100.836C130.74 100.767 131.079 100.763 131.41 100.826C131.744 100.908 132.059 101.055 132.335 101.26C132.604 101.484 132.829 101.757 132.998 102.064C133.319 102.699 133.48 103.403 133.465 104.114C133.468 104.841 133.335 105.563 133.072 106.242C132.503 107.647 131.564 108.875 130.353 109.795C129.086 110.775 127.58 111.405 125.989 111.619C125.173 111.735 124.344 111.724 123.532 111.588C123.119 111.522 122.712 111.425 122.314 111.297C121.916 111.152 121.529 110.981 121.153 110.785C120.404 110.369 119.737 109.822 119.185 109.169C118.614 108.503 118.214 107.709 118.02 106.854C117.806 105.977 117.916 105.052 118.329 104.248C118.74 103.435 119.419 102.787 120.254 102.415C120.677 102.225 121.141 102.144 121.603 102.181C122.061 102.226 122.499 102.391 122.873 102.659C123.582 103.219 124.072 104.009 124.256 104.891C124.457 105.736 124.504 106.61 124.396 107.471C124.311 108.315 124.122 109.145 123.833 109.942C123.298 111.516 122.352 112.921 121.092 114.012C119.868 115.057 118.337 115.68 116.728 115.788C115.241 115.939 113.749 115.558 112.519 114.714C111.289 113.869 110.402 112.617 110.015 111.18C109.62 109.898 109.673 108.52 110.164 107.271C110.395 106.675 110.791 106.157 111.307 105.777C111.565 105.589 111.864 105.466 112.18 105.417C112.49 105.371 112.807 105.431 113.079 105.586C113.328 105.747 113.536 105.964 113.688 106.219C113.839 106.473 113.93 106.759 113.952 107.054C114.025 107.594 114.003 108.142 113.886 108.674C113.714 109.645 113.421 110.59 113.014 111.489C112.661 112.269 112.222 113.007 111.704 113.691C111.272 114.27 110.784 114.805 110.247 115.289C109.514 115.969 108.688 116.542 107.794 116.992C107.564 117.113 107.328 117.222 107.087 117.317L106.838 117.413L107.078 117.296C107.235 117.217 107.479 117.122 107.776 116.952C108.655 116.484 109.467 115.899 110.19 115.215C111.336 114.14 112.261 112.854 112.913 111.428C113.321 110.54 113.614 109.605 113.786 108.644C113.893 108.125 113.912 107.592 113.843 107.067C113.822 106.797 113.739 106.535 113.601 106.301C113.464 106.067 113.275 105.867 113.048 105.716C112.807 105.579 112.525 105.527 112.25 105.569C111.966 105.619 111.699 105.735 111.469 105.907C110.979 106.268 110.603 106.761 110.386 107.328C109.914 108.542 109.869 109.881 110.26 111.124C110.639 112.514 111.502 113.724 112.694 114.541C113.887 115.357 115.331 115.725 116.771 115.58C118.332 115.468 119.815 114.859 121 113.843C122.23 112.776 123.152 111.403 123.672 109.864C123.952 109.081 124.137 108.268 124.221 107.441C124.326 106.605 124.278 105.758 124.082 104.939C123.909 104.107 123.445 103.364 122.772 102.841C122.429 102.595 122.026 102.445 121.605 102.406C121.183 102.367 120.759 102.441 120.376 102.62C119.588 102.973 118.947 103.587 118.561 104.357C118.173 105.111 118.071 105.979 118.273 106.802C118.483 107.608 118.861 108.361 119.381 109.013C119.901 109.665 120.552 110.202 121.293 110.59C121.656 110.778 122.031 110.943 122.415 111.085C123.567 111.458 124.789 111.567 125.989 111.402C126.768 111.294 127.53 111.085 128.254 110.781C128.962 110.48 129.629 110.092 130.24 109.625C131.423 108.726 132.342 107.525 132.898 106.151C133.153 105.496 133.285 104.799 133.286 104.096C133.302 103.418 133.152 102.746 132.85 102.137C132.692 101.853 132.485 101.599 132.239 101.386C131.988 101.186 131.698 101.038 131.388 100.952C131.081 100.893 130.765 100.896 130.46 100.96C130.154 101.024 129.864 101.148 129.607 101.325C129.099 101.658 128.699 102.13 128.455 102.685C128.233 103.222 128.159 103.808 128.241 104.383C128.407 105.462 128.936 106.453 129.742 107.193C130.466 107.849 131.33 108.331 132.269 108.605C133.09 108.834 133.94 108.945 134.792 108.935C135.51 108.93 136.227 108.869 136.935 108.752C137.919 108.592 138.893 108.38 139.855 108.118L140.605 107.914L140.846 107.901Z" fill="#092841"/>
<path d="M118.863 6.30707H85.9199V18.8418H118.863V6.30707Z" fill="#E0E0E0"/>
<path d="M118.862 18.8375C118.862 18.8375 118.862 18.7593 118.862 18.6116C118.862 18.4639 118.862 18.2424 118.862 17.9601C118.862 17.3824 118.862 16.5485 118.862 15.4714C118.862 13.2998 118.835 10.1856 118.818 6.30705L118.897 6.38523L85.9581 6.41998L86.0716 6.30705C86.0716 10.6851 86.0716 14.9198 86.0716 18.8375L85.9625 18.7289L109.53 18.781L116.396 18.8114H118.242H118.722H118.888C118.837 18.8157 118.786 18.8157 118.735 18.8114H118.268H116.448L109.605 18.8418L85.945 18.8896H85.8359V18.781C85.8359 14.872 85.8359 10.6286 85.8359 6.25059L85.9494 6.13766L118.888 6.17241H118.966V6.25059C118.966 10.1596 118.936 13.2867 118.923 15.4627C118.923 16.5312 118.923 17.3607 118.923 17.934C118.923 18.2077 118.923 18.4205 118.923 18.5725C118.923 18.7245 118.862 18.8375 118.862 18.8375Z" fill="#092841"/>
<path d="M158.317 199.262H136.983C136.526 199.262 136.086 199.083 135.76 198.764C135.433 198.445 135.246 198.011 135.238 197.555L134.723 140.298H159.521L160.036 197.52C160.038 197.978 159.858 198.417 159.536 198.743C159.214 199.069 158.776 199.255 158.317 199.262V199.262Z" fill="#428ECD"/>
<g opacity="0.3">
<path d="M155.18 153.006V197.086C155.18 197.086 158.671 198.241 158.841 195.201C159.012 192.161 158.92 152.997 158.92 152.997L155.18 153.006Z" fill="white"/>
</g>
<path d="M157.183 137.392H137.106C136.759 137.392 136.426 137.529 136.18 137.774C135.935 138.018 135.797 138.349 135.797 138.695V139.976H158.492V138.673C158.486 138.331 158.346 138.006 158.101 137.766C157.856 137.526 157.526 137.392 157.183 137.392V137.392Z" fill="#FAFAFA"/>
<path d="M157.182 137.392C157.254 137.381 157.328 137.381 157.4 137.392C157.616 137.419 157.82 137.501 157.994 137.631C158.138 137.737 158.259 137.871 158.349 138.025C158.44 138.178 158.499 138.349 158.522 138.526C158.522 138.96 158.522 139.394 158.522 139.95V140.002H158.465C154.306 140.033 146.271 140.059 137.079 140.059H135.661V138.734C135.654 138.518 135.697 138.304 135.785 138.107C135.873 137.91 136.006 137.735 136.172 137.596C136.338 137.458 136.533 137.36 136.743 137.309C136.945 137.273 137.15 137.26 137.354 137.27H138.515H142.928L150.347 137.296L155.336 137.331H156.689H157.038H157.156H157.038H156.689H155.336L150.347 137.366L142.928 137.392H138.515H137.354C137.167 137.381 136.98 137.393 136.796 137.427C136.62 137.471 136.456 137.552 136.316 137.666C135.687 138.139 135.94 139.051 135.879 139.837L135.766 139.724H137.075C146.28 139.724 154.314 139.746 158.461 139.781L158.404 139.837C158.404 139.303 158.404 138.821 158.404 138.426C158.387 138.257 158.336 138.092 158.255 137.943C158.173 137.794 158.062 137.663 157.928 137.557C157.698 137.438 157.441 137.381 157.182 137.392Z" fill="#092841"/>
<path d="M160.992 139.355H133.273C132.637 139.355 132.121 139.868 132.121 140.502V151.851C132.121 152.484 132.637 152.997 133.273 152.997H160.992C161.628 152.997 162.144 152.484 162.144 151.851V140.502C162.144 139.868 161.628 139.355 160.992 139.355Z" fill="#FAFAFA"/>
<path d="M160.993 153.006C160.993 153.006 161.071 153.006 161.211 152.971C161.42 152.928 161.613 152.825 161.765 152.676C162.276 152.294 162.071 151.373 162.101 150.318C162.101 148.146 162.079 145.04 162.066 141.197C162.066 140.958 162.066 140.715 162.066 140.467C162.059 140.235 161.974 140.012 161.826 139.833C161.672 139.65 161.462 139.522 161.228 139.468C160.976 139.441 160.722 139.434 160.469 139.446H157.178H149.916H133.283C133.116 139.445 132.952 139.484 132.804 139.56C132.656 139.635 132.528 139.745 132.432 139.881C132.338 140.009 132.277 140.158 132.253 140.315C132.244 140.491 132.244 140.668 132.253 140.845V147.23C132.253 148.611 132.253 149.97 132.253 151.304V151.803C132.254 151.953 132.286 152.101 132.349 152.237C132.411 152.373 132.502 152.493 132.615 152.59C132.728 152.688 132.86 152.76 133.004 152.802C133.153 152.843 133.308 152.858 133.462 152.845H134.911L148.497 152.867L157.663 152.906H160.15H160.801H161.019H160.801H160.15L157.663 152.928L148.497 152.963L134.911 152.989H133.462C133.288 153.001 133.114 152.983 132.947 152.937C132.773 152.887 132.613 152.801 132.476 152.684C132.339 152.567 132.229 152.422 132.153 152.259C132.078 152.094 132.04 151.915 132.039 151.733V151.234C132.039 149.902 132.039 148.544 132.039 147.16C132.039 145.775 132.039 144.363 132.039 142.934V140.762C132.039 140.576 132.039 140.406 132.039 140.202C132.069 140.002 132.145 139.812 132.262 139.646C132.379 139.482 132.534 139.348 132.714 139.255C132.894 139.163 133.094 139.115 133.296 139.116H149.929H157.191H160.482C160.749 139.103 161.016 139.113 161.281 139.147C161.551 139.215 161.793 139.367 161.97 139.581C162.139 139.791 162.236 140.05 162.245 140.319V141.053C162.245 144.893 162.215 148.003 162.206 150.174C162.206 150.708 162.206 151.186 162.206 151.603C162.219 151.782 162.192 151.962 162.125 152.129C162.059 152.296 161.955 152.446 161.822 152.567C161.661 152.717 161.459 152.816 161.241 152.85C161.17 152.918 161.086 152.972 160.993 153.006V153.006Z" fill="#092841"/>
<path d="M133.867 152.772C133.802 152.772 133.754 149.866 133.754 146.287C133.754 142.708 133.802 139.798 133.867 139.798C133.933 139.798 133.981 142.704 133.981 146.287C133.981 149.87 133.929 152.772 133.867 152.772Z" fill="#092841"/>
<path d="M136.137 152.772C136.071 152.772 136.023 149.866 136.023 146.287C136.023 142.708 136.071 139.798 136.137 139.798C136.202 139.798 136.25 142.704 136.25 146.287C136.25 149.87 136.198 152.772 136.137 152.772Z" fill="#092841"/>
<path d="M138.406 152.772C138.345 152.772 138.293 149.866 138.293 146.287C138.293 142.708 138.345 139.798 138.406 139.798C138.468 139.798 138.52 142.704 138.52 146.287C138.52 149.87 138.468 152.772 138.406 152.772Z" fill="#092841"/>
<path d="M140.676 152.772C140.615 152.772 140.562 149.866 140.562 146.287C140.562 142.708 140.615 139.798 140.676 139.798C140.737 139.798 140.79 142.704 140.79 146.287C140.79 149.87 140.741 152.772 140.676 152.772Z" fill="#092841"/>
<path d="M142.949 152.772C142.884 152.772 142.836 149.866 142.836 146.287C142.836 142.708 142.884 139.798 142.949 139.798C143.015 139.798 143.063 142.704 143.063 146.287C143.063 149.87 143.011 152.772 142.949 152.772Z" fill="#092841"/>
<path d="M145.219 152.772C145.153 152.772 145.105 149.866 145.105 146.287C145.105 142.708 145.153 139.798 145.219 139.798C145.284 139.798 145.332 142.704 145.332 146.287C145.332 149.87 145.28 152.772 145.219 152.772Z" fill="#092841"/>
<path d="M147.489 152.772C147.427 152.772 147.375 149.866 147.375 146.287C147.375 142.708 147.427 139.798 147.489 139.798C147.55 139.798 147.602 142.704 147.602 146.287C147.602 149.87 147.55 152.772 147.489 152.772Z" fill="#092841"/>
<path d="M149.758 152.772C149.697 152.772 149.645 149.866 149.645 146.287C149.645 142.708 149.697 139.798 149.758 139.798C149.819 139.798 149.872 142.704 149.872 146.287C149.872 149.87 149.824 152.772 149.758 152.772Z" fill="#092841"/>
<path d="M152.028 152.772C151.966 152.772 151.914 149.866 151.914 146.287C151.914 142.708 151.966 139.798 152.028 139.798C152.089 139.798 152.145 142.704 152.145 146.287C152.145 149.87 152.093 152.772 152.028 152.772Z" fill="#092841"/>
<path d="M154.301 152.772C154.236 152.772 154.188 149.866 154.188 146.287C154.188 142.708 154.236 139.798 154.301 139.798C154.366 139.798 154.415 142.704 154.415 146.287C154.415 149.87 154.362 152.772 154.301 152.772Z" fill="#092841"/>
<path d="M156.572 152.772C156.511 152.772 156.459 149.866 156.459 146.287C156.459 142.708 156.511 139.798 156.572 139.798C156.634 139.798 156.686 142.704 156.686 146.287C156.686 149.87 156.634 152.772 156.572 152.772Z" fill="#092841"/>
<path d="M158.84 152.772C158.779 152.772 158.727 149.866 158.727 146.287C158.727 142.708 158.779 139.798 158.84 139.798C158.901 139.798 158.954 142.704 158.954 146.287C158.954 149.87 158.906 152.772 158.84 152.772Z" fill="#092841"/>
<path d="M161.11 152.772C161.048 152.772 160.996 149.866 160.996 146.287C160.996 142.708 161.048 139.798 161.11 139.798C161.171 139.798 161.223 142.704 161.223 146.287C161.223 149.87 161.175 152.772 161.11 152.772Z" fill="#092841"/>
<path d="M158.146 163.274H136.678V180.382H158.146V163.274Z" fill="white"/>
<path d="M140.366 168.72L139.864 167.999H139.314V168.72H138.703V166.14H139.825C140.029 166.135 140.232 166.175 140.419 166.257C140.579 166.323 140.716 166.435 140.812 166.579C140.905 166.728 140.952 166.902 140.947 167.078C140.952 167.254 140.903 167.426 140.807 167.573C140.711 167.715 140.574 167.826 140.414 167.891L140.995 168.72H140.366ZM140.214 166.744C140.095 166.658 139.95 166.617 139.803 166.627H139.314V167.526H139.803C139.95 167.535 140.095 167.494 140.214 167.408C140.258 167.365 140.293 167.313 140.318 167.256C140.342 167.199 140.354 167.138 140.354 167.076C140.354 167.014 140.342 166.953 140.318 166.896C140.293 166.839 140.258 166.787 140.214 166.744V166.744Z" fill="#092841"/>
<path d="M141.676 170.501L141.083 169.654L140.502 170.501H139.852L140.76 169.259L139.886 168.06H140.533L141.096 168.85L141.65 168.06H142.266L141.393 169.237L142.305 170.501H141.676Z" fill="#092841"/>
<path d="M156.572 166.136H144.312V167.99H156.572V166.136Z" fill="#E0E0E0"/>
<path d="M155.179 172.594C155.179 172.655 151.6 172.707 147.183 172.707C142.766 172.707 139.188 172.655 139.188 172.594C139.188 172.534 142.766 172.481 147.183 172.481C151.6 172.481 155.179 172.551 155.179 172.594Z" fill="#092841"/>
<path d="M155.179 174.523C155.179 174.588 151.6 174.636 147.183 174.636C142.766 174.636 139.188 174.588 139.188 174.523C139.188 174.458 142.766 174.41 147.183 174.41C151.6 174.41 155.179 174.462 155.179 174.523Z" fill="#092841"/>
<path d="M146.315 176.942H138.031V178.532H146.315V176.942Z" fill="#E0E0E0"/>
<path d="M157.657 179.852C157.657 179.852 157.657 179.748 157.657 179.548C157.657 179.348 157.657 179.053 157.657 178.679C157.657 177.91 157.657 176.803 157.635 175.391C157.635 172.56 157.605 168.529 157.587 163.665L157.679 163.76H137.101C137.075 163.782 137.315 163.547 137.214 163.651V167.96C137.214 169.376 137.214 170.766 137.214 172.121C137.214 174.835 137.214 177.424 137.214 179.835L137.114 179.735L151.953 179.787L156.169 179.813H157.295H157.688C157.688 179.813 157.662 179.813 157.596 179.813H157.317H156.213L152.018 179.839L137.109 179.891H137.009V179.787C137.009 177.376 137.009 174.788 137.009 172.073C137.009 170.718 137.009 169.328 137.009 167.912V163.604C136.909 163.699 137.149 163.46 137.123 163.486H157.701H157.797V163.582C157.797 168.468 157.758 172.525 157.749 175.37C157.749 176.768 157.727 177.871 157.723 178.636C157.723 179.001 157.723 179.283 157.723 179.504C157.723 179.726 157.657 179.852 157.657 179.852Z" fill="#092841"/>
<path d="M136.137 194.593C136.071 194.593 136.023 185.663 136.023 174.649C136.023 163.634 136.071 154.704 136.137 154.704C136.202 154.704 136.25 163.634 136.25 174.649C136.25 185.663 136.198 194.593 136.137 194.593Z" fill="white"/>
<path d="M158.168 198.333C158.168 198.393 153.485 198.446 147.693 198.446C141.902 198.446 137.219 198.393 137.219 198.333C137.219 198.272 141.902 198.22 147.693 198.22C153.485 198.22 158.168 198.272 158.168 198.333Z" fill="#092841"/>
<path d="M179.445 199.236H162.162C161.792 199.236 161.436 199.091 161.173 198.831C160.91 198.572 160.76 198.219 160.757 197.851L160.32 151.469H180.397L180.811 197.825C180.816 198.191 180.675 198.545 180.42 198.809C180.164 199.074 179.814 199.227 179.445 199.236V199.236Z" fill="#455A64"/>
<g opacity="0.3">
<path d="M176.9 161.753V197.473C176.9 197.473 179.729 198.407 179.869 195.944C180.009 193.481 179.93 161.753 179.93 161.753H176.9Z" fill="white"/>
</g>
<path d="M178.275 149.097H162.489C162.142 149.097 161.809 149.234 161.563 149.479C161.318 149.723 161.18 150.055 161.18 150.4V151.178H179.571V150.4C179.571 150.057 179.435 149.727 179.193 149.483C178.95 149.239 178.62 149.101 178.275 149.097V149.097Z" fill="#FAFAFA"/>
<path d="M178.275 149.097C178.338 149.089 178.401 149.089 178.463 149.097C178.649 149.113 178.829 149.172 178.987 149.271C179.249 149.43 179.45 149.674 179.554 149.961C179.614 150.145 179.641 150.338 179.633 150.53C179.633 150.735 179.633 150.965 179.633 151.173V151.269H179.576C176.176 151.304 169.791 151.325 162.489 151.325H161.066V151.212C161.066 150.882 161.066 150.583 161.066 150.235C161.116 149.894 161.29 149.583 161.555 149.361C161.819 149.138 162.156 149.02 162.502 149.028H163.428H166.941L172.85 149.049L176.809 149.084L177.883 149.106C178.007 149.104 178.131 149.111 178.254 149.128C178.13 149.137 178.006 149.137 177.883 149.128L176.809 149.149L172.85 149.184L166.941 149.21H162.524C162.235 149.203 161.953 149.3 161.73 149.484C161.502 149.67 161.354 149.935 161.315 150.226C161.289 150.513 161.315 150.856 161.315 151.173L161.202 151.06H162.511C169.813 151.06 176.198 151.082 179.598 151.117L179.541 151.173C179.541 150.947 179.541 150.739 179.541 150.53C179.555 150.349 179.535 150.166 179.48 149.992C179.391 149.717 179.211 149.481 178.969 149.323C178.759 149.194 178.521 149.117 178.275 149.097V149.097Z" fill="#092841"/>
<path d="M181.397 150.704H159.379C158.742 150.704 158.227 151.217 158.227 151.851V160.611C158.227 161.244 158.742 161.758 159.379 161.758H181.397C182.034 161.758 182.55 161.244 182.55 160.611V151.851C182.55 151.217 182.034 150.704 181.397 150.704Z" fill="#FAFAFA"/>
<path d="M181.391 161.753C181.623 161.737 181.846 161.659 182.037 161.528C182.259 161.364 182.414 161.127 182.474 160.859C182.501 160.684 182.509 160.506 182.496 160.329C182.496 160.138 182.496 159.929 182.496 159.716C182.496 157.979 182.474 155.464 182.461 152.372C182.461 152.181 182.461 151.977 182.461 151.786C182.449 151.599 182.387 151.419 182.282 151.264C182.173 151.103 182.023 150.974 181.847 150.891C181.671 150.808 181.476 150.773 181.282 150.791H178.629H172.78H159.377C159.108 150.792 158.849 150.896 158.656 151.083C158.462 151.269 158.349 151.522 158.338 151.79C158.338 152.372 158.338 152.95 158.338 153.527V156.932C158.338 158.05 158.338 159.145 158.338 160.216C158.315 160.469 158.34 160.724 158.413 160.967C158.505 161.191 158.669 161.377 158.88 161.497C159.1 161.606 159.346 161.651 159.591 161.628H160.368L171.314 161.654L178.694 161.688H180.702H181.221H181.4H181.221H180.702L178.694 161.71L171.314 161.745L160.368 161.771H159.591C159.318 161.819 159.038 161.792 158.779 161.693C158.525 161.548 158.327 161.324 158.216 161.054C158.162 160.915 158.133 160.769 158.129 160.62V160.216C158.129 159.145 158.129 158.05 158.129 156.932V151.807C158.141 151.481 158.28 151.173 158.516 150.946C158.752 150.719 159.067 150.592 159.395 150.591H172.798H178.646H181.3C181.522 150.58 181.744 150.625 181.945 150.724C182.145 150.822 182.316 150.969 182.443 151.151C182.561 151.332 182.629 151.54 182.64 151.755C182.64 151.964 182.64 152.155 182.64 152.35C182.64 155.443 182.609 157.949 182.6 159.695C182.6 159.908 182.6 160.129 182.6 160.307C182.609 160.489 182.597 160.671 182.565 160.85C182.498 161.134 182.325 161.382 182.081 161.545C181.934 161.645 181.765 161.707 181.588 161.727C181.524 161.748 181.458 161.756 181.391 161.753Z" fill="#092841"/>
<path d="M159.653 161.571C159.591 161.571 159.539 159.221 159.539 156.32C159.539 153.419 159.591 151.065 159.653 151.065C159.714 151.065 159.766 153.414 159.766 156.32C159.766 159.226 159.696 161.571 159.653 161.571Z" fill="#092841"/>
<path d="M161.473 161.571C161.412 161.571 161.359 159.221 161.359 156.32C161.359 153.419 161.412 151.065 161.473 151.065C161.534 151.065 161.586 153.414 161.586 156.32C161.586 159.226 161.538 161.571 161.473 161.571Z" fill="#092841"/>
<path d="M163.315 161.571C163.249 161.571 163.201 159.221 163.201 156.32C163.201 153.419 163.249 151.065 163.315 151.065C163.38 151.065 163.428 153.414 163.428 156.32C163.428 159.226 163.376 161.571 163.315 161.571Z" fill="#092841"/>
<path d="M165.153 161.571C165.091 161.571 165.039 159.221 165.039 156.32C165.039 153.419 165.091 151.065 165.153 151.065C165.214 151.065 165.266 153.414 165.266 156.32C165.266 159.226 165.218 161.571 165.153 161.571Z" fill="#092841"/>
<path d="M166.994 161.571C166.929 161.571 166.881 159.221 166.881 156.32C166.881 153.419 166.929 151.065 166.994 151.065C167.06 151.065 167.108 153.414 167.108 156.32C167.108 159.226 167.073 161.571 166.994 161.571Z" fill="#092841"/>
<path d="M168.819 161.571C168.757 161.571 168.705 159.221 168.705 156.32C168.705 153.419 168.757 151.065 168.819 151.065C168.88 151.065 168.932 153.414 168.932 156.32C168.932 159.226 168.897 161.571 168.819 161.571Z" fill="#092841"/>
<path d="M170.672 161.571C170.607 161.571 170.559 159.221 170.559 156.32C170.559 153.419 170.607 151.065 170.672 151.065C170.738 151.065 170.786 153.414 170.786 156.32C170.786 159.226 170.733 161.571 170.672 161.571Z" fill="#092841"/>
<path d="M172.51 161.571C172.449 161.571 172.396 159.221 172.396 156.32C172.396 153.419 172.449 151.065 172.51 151.065C172.571 151.065 172.623 153.414 172.623 156.32C172.623 159.226 172.571 161.571 172.51 161.571Z" fill="#092841"/>
<path d="M174.352 161.571C174.287 161.571 174.234 159.221 174.234 156.32C174.234 153.419 174.287 151.065 174.352 151.065C174.418 151.065 174.466 153.414 174.466 156.32C174.466 159.226 174.413 161.571 174.352 161.571Z" fill="#092841"/>
<path d="M176.19 161.571C176.129 161.571 176.076 159.221 176.076 156.32C176.076 153.419 176.129 151.065 176.19 151.065C176.251 151.065 176.303 153.414 176.303 156.32C176.303 159.226 176.238 161.571 176.19 161.571Z" fill="#092841"/>
<path d="M178.028 161.571C177.966 161.571 177.914 159.221 177.914 156.32C177.914 153.419 177.966 151.065 178.028 151.065C178.089 151.065 178.141 153.414 178.141 156.32C178.141 159.226 178.093 161.571 178.028 161.571Z" fill="#092841"/>
<path d="M179.869 161.571C179.804 161.571 179.756 159.221 179.756 156.32C179.756 153.419 179.804 151.065 179.869 151.065C179.935 151.065 179.983 153.414 179.983 156.32C179.983 159.226 179.93 161.571 179.869 161.571Z" fill="#092841"/>
<path d="M181.705 161.571C181.644 161.571 181.592 159.221 181.592 156.32C181.592 153.419 181.644 151.065 181.705 151.065C181.766 151.065 181.819 153.414 181.819 156.32C181.819 159.226 181.771 161.571 181.705 161.571Z" fill="#092841"/>
<path d="M179.306 170.08H161.914V183.939H179.306V170.08Z" fill="white"/>
<path d="M164.89 174.492L164.488 173.91H164.052V174.492H163.58V172.403H164.453C164.619 172.399 164.785 172.43 164.938 172.494C165.067 172.55 165.176 172.642 165.252 172.759C165.326 172.88 165.365 173.019 165.365 173.161C165.365 173.303 165.326 173.442 165.252 173.563C165.174 173.678 165.063 173.767 164.933 173.819L165.405 174.492H164.89ZM164.768 172.89C164.671 172.823 164.554 172.79 164.436 172.798H164.038V173.524H164.453C164.572 173.533 164.69 173.499 164.785 173.428C164.824 173.395 164.855 173.354 164.874 173.307C164.894 173.26 164.902 173.21 164.899 173.159C164.901 173.108 164.891 173.057 164.87 173.01C164.849 172.963 164.817 172.922 164.776 172.89H164.768Z" fill="#092841"/>
<path d="M165.964 175.934L165.484 175.248L165.013 175.934H164.484L165.218 174.927L164.519 173.958H165.043L165.48 174.597L165.916 173.958H166.414L165.764 174.909L166.501 175.934H165.964Z" fill="#092841"/>
<path d="M178.027 172.399H168.098V173.902H178.027V172.399Z" fill="#E0E0E0"/>
<path d="M176.901 177.628C176.901 177.693 174.003 177.741 170.424 177.741C166.845 177.741 163.947 177.693 163.947 177.628C163.947 177.563 166.845 177.515 170.424 177.515C174.003 177.515 176.901 177.567 176.901 177.628Z" fill="#092841"/>
<path d="M176.901 179.196C176.901 179.257 174.003 179.309 170.424 179.309C166.845 179.309 163.947 179.257 163.947 179.196C163.947 179.135 166.845 179.083 170.424 179.083C174.003 179.083 176.901 179.131 176.901 179.196Z" fill="#092841"/>
<path d="M169.722 181.151H163.01V182.436H169.722V181.151Z" fill="#E0E0E0"/>
<path d="M178.909 183.513C178.909 183.513 178.909 183.422 178.909 183.261C178.909 183.101 178.909 182.853 178.909 182.558C178.909 181.928 178.909 181.029 178.887 179.891C178.887 177.593 178.856 174.332 178.839 170.397L178.931 170.492H162.263L162.376 170.379V172.117C162.376 172.703 162.376 173.281 162.376 173.854V177.224C162.376 179.422 162.376 181.515 162.376 183.474L162.276 183.37L174.291 183.422L177.713 183.448H178.625H178.861H178.944H178.647H177.774L174.374 183.474L162.293 183.526H162.189V183.426C162.189 181.468 162.189 179.374 162.189 177.176V170.314C162.088 170.414 162.328 170.175 162.307 170.201H178.974H179.07V170.379C179.07 174.336 179.031 177.624 179.022 179.934C179.022 181.064 179.001 181.954 178.996 182.575C178.996 182.866 178.996 183.096 178.996 183.266C178.974 183.351 178.945 183.433 178.909 183.513V183.513Z" fill="#092841"/>
<path d="M161.473 195.453C161.412 195.453 161.359 188.217 161.359 179.296C161.359 170.375 161.412 163.139 161.473 163.139C161.534 163.139 161.586 170.371 161.586 179.296C161.586 188.221 161.538 195.453 161.473 195.453Z" fill="white"/>
<path d="M179.324 198.48C179.324 198.545 175.527 198.593 170.848 198.593C166.17 198.593 162.377 198.545 162.377 198.48C162.377 198.415 166.17 198.367 170.848 198.367C175.527 198.367 179.324 198.42 179.324 198.48Z" fill="#092841"/>
</svg>
