<svg width="21" height="20" viewBox="0 0 21 20" fill="none" xmlns="http://www.w3.org/2000/svg">
<path d="M18.278 2.22197C20.621 4.56497 20.621 8.36397 18.278 10.707L11.208 17.778C8.86397 20.121 5.06497 20.121 2.72197 17.778C0.378972 15.435 0.378972 11.636 2.72197 9.29297L9.79197 2.22197C12.136 -0.121028 15.935 -0.121028 18.278 2.22197ZM12.622 13.535L6.96497 7.87797L4.13597 10.708C2.57397 12.269 2.57397 14.802 4.13597 16.364C5.69797 17.926 8.23097 17.926 9.79297 16.364L12.622 13.534V13.535ZM16.864 3.63597C15.302 2.07397 12.769 2.07397 11.207 3.63597L8.37997 6.46397L14.037 12.121L16.865 9.29297C18.427 7.73097 18.427 5.19797 16.865 3.63597H16.864Z" fill="#2082E4"/>
</svg>
