<svg width="24" height="25" viewBox="0 0 24 25" fill="none" xmlns="http://www.w3.org/2000/svg">
<path d="M16.25 4.06V4.51584L16.7039 4.55787C17.9607 4.67424 18.8396 5.10009 19.4285 5.72534C20.0186 6.3518 20.3659 7.22969 20.4607 8.33991C20.4603 8.34 20.4601 8.34 20.46 8.34H20.46H3.54161C3.54098 8.33968 3.54018 8.33919 3.53936 8.33853C3.63436 7.22896 3.98156 6.35155 4.57144 5.72534C5.16041 5.10009 6.0393 4.67424 7.29608 4.55787L7.74999 4.51584V4.06V2.5C7.74999 2.36614 7.86613 2.25 7.99999 2.25C8.13384 2.25 8.24999 2.36614 8.24999 2.5V4V4.5H8.74999H15.25H15.75V4V2.5C15.75 2.36614 15.8661 2.25 16 2.25C16.1338 2.25 16.25 2.36614 16.25 2.5V4.06Z" fill="#2082E4" stroke="#104172"/>
<path d="M9.54448 19.0817L9.55928 19.0684L9.57298 19.054C9.83498 18.7774 10 18.3965 10 18.0001C10 17.6037 9.83498 17.2228 9.57298 16.9462L9.55928 16.9318L9.54448 16.9184C9.40399 16.792 9.24625 16.691 9.07231 16.6185C8.70923 16.4673 8.29077 16.4673 7.92769 16.6185C7.75375 16.691 7.59601 16.792 7.45552 16.9184L7.44072 16.9318L7.42702 16.9462C7.16502 17.2228 7 17.6037 7 18.0001C7 18.3965 7.16502 18.7774 7.42702 19.054L7.44072 19.0684L7.45552 19.0817C7.59601 19.2082 7.75375 19.3092 7.92769 19.3816C8.09884 19.4529 8.29415 19.5001 8.5 19.5001C8.70585 19.5001 8.90116 19.4529 9.07231 19.3816C9.24625 19.3092 9.40399 19.2082 9.54448 19.0817ZM9.54448 15.5817L9.56404 15.5641L9.58165 15.5446C9.70809 15.4041 9.80906 15.2463 9.88154 15.0724C9.95285 14.9013 10 14.7059 10 14.5001C10 14.2942 9.95285 14.0989 9.88154 13.9278C9.80906 13.7538 9.70809 13.5961 9.58165 13.4556L9.56404 13.436L9.54448 13.4184C9.40399 13.292 9.24625 13.191 9.07231 13.1185C8.70923 12.9673 8.29077 12.9673 7.92769 13.1185C7.75375 13.191 7.59601 13.292 7.45552 13.4184L7.43596 13.436L7.41835 13.4556C7.29191 13.5961 7.19094 13.7538 7.11846 13.9278C7.04715 14.0989 7 14.2942 7 14.5001C7 14.7059 7.04715 14.9013 7.11846 15.0724C7.19094 15.2463 7.29191 15.4041 7.41835 15.5446L7.43596 15.5641L7.45552 15.5817C7.59601 15.7082 7.75375 15.8092 7.92769 15.8816C8.09884 15.9529 8.29415 16.0001 8.5 16.0001C8.70585 16.0001 8.90116 15.9529 9.07231 15.8816C9.24625 15.8092 9.40399 15.7082 9.54448 15.5817ZM13.0445 15.5817L13.0593 15.5684L13.073 15.554C13.335 15.2774 13.5 14.8965 13.5 14.5001C13.5 14.1037 13.335 13.7228 13.073 13.4462L13.0593 13.4318L13.0445 13.4184C12.9061 13.2939 12.751 13.1941 12.5802 13.1219C12.2125 12.9562 11.7875 12.9562 11.4198 13.1219C11.249 13.1941 11.0939 13.2939 10.9555 13.4184L10.9407 13.4318L10.927 13.4462C10.665 13.7228 10.5 14.1037 10.5 14.5001C10.5 14.8965 10.665 15.2774 10.927 15.554L10.9407 15.5684L10.9555 15.5817C11.096 15.7082 11.2538 15.8092 11.4277 15.8816C11.5988 15.9529 11.7941 16.0001 12 16.0001C12.2059 16.0001 12.4012 15.9529 12.5723 15.8816C12.7462 15.8092 12.904 15.7082 13.0445 15.5817ZM4 10.8401H20C20.2739 10.8401 20.5 11.0662 20.5 11.3401V17.5001C20.5 18.9234 20.1441 20.0332 19.4461 20.7849C18.7543 21.5298 17.6547 22.0001 16 22.0001H8C6.3453 22.0001 5.24565 21.5298 4.5539 20.7849C3.85591 20.0332 3.5 18.9234 3.5 17.5001V11.3401C3.5 11.0662 3.72614 10.8401 4 10.8401Z" fill="#2082E4" stroke="#104172"/>
</svg>
