<svg width="40" height="40" viewBox="0 0 40 40" fill="none" xmlns="http://www.w3.org/2000/svg">
<rect width="40" height="40" rx="20" fill="#E8F2FC"/>
<path fill-rule="evenodd" clip-rule="evenodd" d="M20.657 10.757C21.7823 9.63185 23.3085 8.99978 24.8999 8.99988C26.4912 8.99997 28.0173 9.63222 29.1425 10.7575C30.2677 11.8828 30.8998 13.409 30.8997 15.0004C30.8996 16.5917 30.2673 18.1179 29.142 19.243L19.242 29.143C18.1167 30.2682 16.5905 30.9003 14.9992 30.9002C13.4078 30.9001 11.8817 30.2678 10.7565 29.1425C9.63133 28.0172 8.99927 26.491 8.99936 24.8997C8.99945 23.3083 9.6317 21.7822 10.757 20.657L20.657 10.757ZM27.727 17.828L23.485 22.071L17.828 16.414L22.071 12.172C22.4409 11.7937 22.8821 11.4926 23.3691 11.286C23.8562 11.0794 24.3794 10.9714 24.9084 10.9684C25.4375 10.9654 25.9619 11.0674 26.4512 11.2685C26.9406 11.4695 27.3852 11.7656 27.7593 12.1397C28.1335 12.5138 28.4297 12.9583 28.6308 13.4477C28.832 13.937 28.934 14.4614 28.9311 14.9904C28.9282 15.5195 28.8204 16.0427 28.6138 16.5297C28.4073 17.0168 28.1062 17.4581 27.728 17.828H27.727Z" fill="#6AACED"/>
</svg>
