<svg width="23" height="23" viewBox="0 0 23 23" fill="none" xmlns="http://www.w3.org/2000/svg">
<path d="M11.5 17.25C14.6756 17.25 17.25 14.6756 17.25 11.5C17.25 8.32436 14.6756 5.75 11.5 5.75C8.32436 5.75 5.75 8.32436 5.75 11.5C5.75 14.6756 8.32436 17.25 11.5 17.25Z" fill="url(#paint0_linear_857_12729)"/>
<path d="M15.4855 7.36004L5.82909 12.4416C5.77542 12.1306 5.74897 11.8156 5.75003 11.5C5.74929 10.3721 6.08055 9.26879 6.70251 8.32777C7.32448 7.38675 8.20964 6.64959 9.24767 6.20817C10.2857 5.76675 11.4307 5.64059 12.5399 5.84542C13.6492 6.05025 14.6736 6.57701 15.4855 7.36004Z" fill="url(#paint1_linear_857_12729)"/>
<path d="M11.5 4.54358C11.4047 4.54358 11.3133 4.50572 11.2459 4.43832C11.1785 4.37092 11.1406 4.27951 11.1406 4.1842V0.71875C11.1406 0.623438 11.1785 0.532029 11.2459 0.464633C11.3133 0.397238 11.4047 0.359375 11.5 0.359375C11.5953 0.359375 11.6867 0.397238 11.7541 0.464633C11.8215 0.532029 11.8594 0.623438 11.8594 0.71875V4.1842C11.8594 4.27951 11.8215 4.37092 11.7541 4.43832C11.6867 4.50572 11.5953 4.54358 11.5 4.54358Z" fill="url(#paint2_linear_857_12729)"/>
<path d="M7.84218 5.52361C7.77904 5.52367 7.71699 5.50709 7.66229 5.47555C7.6076 5.444 7.56217 5.3986 7.5306 5.34392L6.53226 3.61425C6.50829 3.57336 6.49264 3.52814 6.48622 3.48118C6.4798 3.43422 6.48273 3.38646 6.49485 3.34064C6.50696 3.29482 6.52802 3.25185 6.55681 3.2142C6.5856 3.17655 6.62155 3.14497 6.66259 3.12127C6.70364 3.09757 6.74896 3.08223 6.79596 3.07612C6.84296 3.07001 6.89071 3.07326 6.93644 3.08567C6.98218 3.09809 7.02501 3.11943 7.06247 3.14847C7.09993 3.17751 7.13127 3.21367 7.1547 3.25487L8.1534 4.98454C8.18494 5.03918 8.20155 5.10115 8.20155 5.16423C8.20155 5.22731 8.18494 5.28928 8.1534 5.34392C8.12186 5.39855 8.07649 5.44391 8.02186 5.47546C7.96723 5.507 7.90526 5.52361 7.84218 5.52361Z" fill="url(#paint3_linear_857_12729)"/>
<path d="M5.16437 8.20126C5.10128 8.20131 5.0393 8.1847 4.98469 8.15311L1.98355 6.42092C1.94265 6.39732 1.90681 6.3659 1.87806 6.32845C1.84931 6.291 1.82821 6.24826 1.81598 6.20266C1.80375 6.15705 1.80062 6.10949 1.80678 6.06268C1.81293 6.01587 1.82824 5.97073 1.85184 5.92983C1.87543 5.88894 1.90685 5.8531 1.9443 5.82435C1.98175 5.7956 2.0245 5.7745 2.0701 5.76227C2.1157 5.75004 2.16327 5.74691 2.21008 5.75306C2.25689 5.75922 2.30203 5.77453 2.34292 5.79812L5.34406 7.53067C5.4126 7.57024 5.46615 7.63133 5.49642 7.70445C5.52668 7.77758 5.53196 7.85865 5.51144 7.93508C5.49092 8.01151 5.44574 8.07903 5.38292 8.12716C5.3201 8.17529 5.24315 8.20134 5.16402 8.20126H5.16437Z" fill="url(#paint4_linear_857_12729)"/>
<path d="M4.18406 11.8594H2.18701C2.0917 11.8594 2.00029 11.8215 1.9329 11.7541C1.8655 11.6867 1.82764 11.5953 1.82764 11.5C1.82764 11.4047 1.8655 11.3133 1.9329 11.2459C2.00029 11.1785 2.0917 11.1406 2.18701 11.1406H4.18406C4.27937 11.1406 4.37078 11.1785 4.43818 11.2459C4.50557 11.3133 4.54343 11.4047 4.54343 11.5C4.54343 11.5953 4.50557 11.6867 4.43818 11.7541C4.37078 11.8215 4.27937 11.8594 4.18406 11.8594Z" fill="url(#paint5_linear_857_12729)"/>
<path d="M2.16343 17.25C2.08429 17.25 2.00734 17.224 1.94452 17.1759C1.8817 17.1277 1.83652 17.0602 1.816 16.9838C1.79548 16.9073 1.80076 16.8263 1.83103 16.7532C1.86129 16.68 1.91485 16.6189 1.98338 16.5794L4.98452 14.8465C5.02542 14.8229 5.07056 14.8076 5.11737 14.8014C5.16418 14.7953 5.21174 14.7984 5.25734 14.8106C5.30295 14.8228 5.34569 14.8439 5.38314 14.8727C5.42059 14.9014 5.45201 14.9373 5.47561 14.9782C5.49921 15.0191 5.51452 15.0642 5.52067 15.111C5.52682 15.1578 5.52369 15.2054 5.51146 15.251C5.49923 15.2966 5.47814 15.3393 5.44939 15.3768C5.42064 15.4142 5.38479 15.4457 5.3439 15.4693L2.34276 17.2018C2.28825 17.2333 2.2264 17.2499 2.16343 17.25Z" fill="url(#paint6_linear_857_12729)"/>
<path d="M6.84338 19.9245C6.78033 19.9245 6.7184 19.9078 6.66382 19.8762C6.60924 19.8447 6.56393 19.7993 6.53243 19.7447C6.50093 19.6901 6.48436 19.6281 6.48438 19.5651C6.48439 19.502 6.501 19.4401 6.53252 19.3855L7.53087 17.6562C7.55446 17.6153 7.58588 17.5794 7.62333 17.5507C7.66078 17.5219 7.70353 17.5008 7.74913 17.4886C7.79473 17.4764 7.8423 17.4732 7.88911 17.4794C7.93592 17.4855 7.98106 17.5008 8.02195 17.5244C8.06285 17.548 8.09869 17.5795 8.12744 17.6169C8.15619 17.6544 8.17728 17.6971 8.18951 17.7427C8.20174 17.7883 8.20487 17.8359 8.19872 17.8827C8.19257 17.9295 8.17726 17.9746 8.15366 18.0155L7.15496 19.7452C7.12339 19.7999 7.07797 19.8453 7.02327 19.8768C6.96857 19.9084 6.90652 19.925 6.84338 19.9249V19.9245Z" fill="url(#paint7_linear_857_12729)"/>
<path d="M11.5 22.6406C11.4047 22.6406 11.3133 22.6028 11.2459 22.5354C11.1785 22.468 11.1406 22.3766 11.1406 22.2812V18.8158C11.1406 18.7205 11.1785 18.6291 11.2459 18.5617C11.3133 18.4943 11.4047 18.4564 11.5 18.4564C11.5953 18.4564 11.6867 18.4943 11.7541 18.5617C11.8215 18.6291 11.8594 18.7205 11.8594 18.8158V22.2812C11.8594 22.3766 11.8215 22.468 11.7541 22.5354C11.6867 22.6028 11.5953 22.6406 11.5 22.6406Z" fill="url(#paint8_linear_857_12729)"/>
<path d="M16.1567 19.9245C16.0936 19.9246 16.0316 19.908 15.9769 19.8765C15.9222 19.8449 15.8767 19.7995 15.8452 19.7448L14.8465 18.0155C14.8229 17.9746 14.8076 17.9295 14.8014 17.8827C14.7953 17.8359 14.7984 17.7883 14.8106 17.7427C14.8228 17.6971 14.8439 17.6544 14.8727 17.6169C14.9014 17.5795 14.9373 17.548 14.9782 17.5244C15.0191 17.5008 15.0642 17.4855 15.111 17.4794C15.1578 17.4732 15.2054 17.4764 15.251 17.4886C15.2966 17.5008 15.3393 17.5219 15.3768 17.5507C15.4142 17.5794 15.4457 17.6153 15.4693 17.6562L16.4676 19.3858C16.4991 19.4404 16.5157 19.5024 16.5158 19.5654C16.5158 19.6285 16.4992 19.6904 16.4677 19.745C16.4362 19.7997 16.3909 19.845 16.3363 19.8766C16.2817 19.9082 16.2198 19.9248 16.1567 19.9249V19.9245Z" fill="url(#paint9_linear_857_12729)"/>
<path d="M20.8364 17.25C20.7734 17.2499 20.7116 17.2333 20.6571 17.2018L17.6559 15.4693C17.5733 15.4216 17.513 15.3431 17.4883 15.251C17.4636 15.1589 17.4765 15.0608 17.5242 14.9782C17.5719 14.8956 17.6504 14.8353 17.7425 14.8106C17.8346 14.7859 17.9327 14.7988 18.0153 14.8465L21.0164 16.5794C21.085 16.6189 21.1385 16.68 21.1688 16.7532C21.199 16.8263 21.2043 16.9073 21.1838 16.9838C21.1633 17.0602 21.1181 17.1277 21.0553 17.1759C20.9925 17.224 20.9155 17.25 20.8364 17.25Z" fill="url(#paint10_linear_857_12729)"/>
<path d="M20.813 11.8594H18.8159C18.7206 11.8594 18.6292 11.8215 18.5618 11.7541C18.4944 11.6867 18.4565 11.5953 18.4565 11.5C18.4565 11.4047 18.4944 11.3133 18.5618 11.2459C18.6292 11.1785 18.7206 11.1406 18.8159 11.1406H20.813C20.9083 11.1406 20.9997 11.1785 21.0671 11.2459C21.1345 11.3133 21.1723 11.4047 21.1723 11.5C21.1723 11.5953 21.1345 11.6867 21.0671 11.7541C20.9997 11.8215 20.9083 11.8594 20.813 11.8594Z" fill="url(#paint11_linear_857_12729)"/>
<path d="M17.8359 8.20127C17.7568 8.20126 17.6799 8.17516 17.6172 8.127C17.5544 8.07884 17.5093 8.01132 17.4888 7.93491C17.4683 7.8585 17.4736 7.77746 17.5039 7.70438C17.5342 7.63129 17.5877 7.57023 17.6562 7.53067L20.6574 5.79813C20.6983 5.77416 20.7435 5.75851 20.7904 5.75209C20.8374 5.74567 20.8852 5.7486 20.931 5.76072C20.9768 5.77283 21.0198 5.79389 21.0574 5.82268C21.0951 5.85147 21.1267 5.88742 21.1504 5.92846C21.1741 5.96951 21.1894 6.01483 21.1955 6.06183C21.2016 6.10883 21.1984 6.15658 21.1859 6.20231C21.1735 6.24805 21.1522 6.29088 21.1231 6.32834C21.0941 6.3658 21.058 6.39714 21.0167 6.42056L18.0156 8.15347C17.961 8.18494 17.899 8.20143 17.8359 8.20127Z" fill="url(#paint12_linear_857_12729)"/>
<path d="M15.1578 5.52361C15.0948 5.52354 15.0329 5.50689 14.9783 5.47532C14.9237 5.44375 14.8784 5.39838 14.8469 5.34376C14.8154 5.28914 14.7988 5.22719 14.7988 5.16414C14.7988 5.10109 14.8154 5.03915 14.847 4.98454L15.8453 3.25487C15.8687 3.21367 15.9001 3.17751 15.9375 3.14847C15.975 3.11943 16.0178 3.09809 16.0636 3.08567C16.1093 3.07326 16.1571 3.07001 16.2041 3.07612C16.2511 3.08223 16.2964 3.09757 16.3374 3.12127C16.3785 3.14497 16.4144 3.17655 16.4432 3.2142C16.472 3.25185 16.4931 3.29482 16.5052 3.34064C16.5173 3.38646 16.5202 3.43422 16.5138 3.48118C16.5074 3.52814 16.4917 3.57336 16.4678 3.61425L15.4694 5.34392C15.4378 5.3986 15.3924 5.444 15.3377 5.47555C15.283 5.50709 15.221 5.52367 15.1578 5.52361Z" fill="url(#paint13_linear_857_12729)"/>
<path d="M5.93945 12.9375C6.2566 14.1713 6.97507 15.2646 7.98175 16.0452C8.98844 16.8259 10.2262 17.2495 11.5001 17.2495C12.774 17.2495 14.0117 16.8259 15.0184 16.0452C16.0251 15.2646 16.7435 14.1713 17.0607 12.9375H5.93945Z" fill="url(#paint14_linear_857_12729)"/>
<path d="M11.1406 2.875V4.1842C11.1406 4.27952 11.1785 4.37092 11.2459 4.43832C11.3133 4.50572 11.4047 4.54358 11.5 4.54358C11.5953 4.54358 11.6867 4.50572 11.7541 4.43832C11.8215 4.37092 11.8594 4.27952 11.8594 4.1842V2.875H11.1406Z" fill="url(#paint15_linear_857_12729)"/>
<path d="M6.87646 4.21008L7.53089 5.34391C7.57854 5.4265 7.65705 5.48677 7.74915 5.51147C7.84125 5.53617 7.93938 5.52328 8.02197 5.47562C8.10456 5.42797 8.16483 5.34945 8.18954 5.25736C8.21424 5.16526 8.20134 5.06712 8.15368 4.98454L7.4989 3.85071L6.87646 4.21008Z" fill="url(#paint16_linear_857_12729)"/>
<path d="M3.85059 7.49866L4.98441 8.15344C5.06691 8.20034 5.16461 8.21271 5.2562 8.18785C5.34778 8.16298 5.42581 8.1029 5.47326 8.02072C5.52071 7.93854 5.53373 7.84092 5.50947 7.74917C5.48522 7.65742 5.42566 7.579 5.34379 7.531L4.20996 6.87622L3.85059 7.49866Z" fill="url(#paint17_linear_857_12729)"/>
<path d="M2.875 11.8594H4.1842C4.27952 11.8594 4.37092 11.8215 4.43832 11.7541C4.50572 11.6867 4.54358 11.5953 4.54358 11.5C4.54358 11.4047 4.50572 11.3133 4.43832 11.2459C4.37092 11.1785 4.27952 11.1406 4.1842 11.1406H2.875V11.8594Z" fill="url(#paint18_linear_857_12729)"/>
<path d="M4.20996 16.1237L5.34379 15.4693C5.42638 15.4216 5.48665 15.3431 5.51135 15.251C5.53605 15.1589 5.52316 15.0608 5.4755 14.9782C5.42784 14.8956 5.34933 14.8353 5.25724 14.8106C5.16514 14.7859 5.067 14.7988 4.98441 14.8465L3.85059 15.5012L4.20996 16.1237Z" fill="url(#paint19_linear_857_12729)"/>
<path d="M7.4989 19.1493L8.15368 18.0155C8.20059 17.933 8.21296 17.8353 8.18809 17.7437C8.16323 17.6521 8.10315 17.5741 8.02096 17.5267C7.93878 17.4792 7.84116 17.4662 7.74942 17.4905C7.65767 17.5147 7.57924 17.5743 7.53125 17.6561L6.87646 18.79L7.4989 19.1493Z" fill="url(#paint20_linear_857_12729)"/>
<path d="M11.8594 20.125V18.8158C11.8594 18.7205 11.8215 18.6291 11.7541 18.5617C11.6867 18.4943 11.5953 18.4564 11.5 18.4564C11.4047 18.4564 11.3133 18.4943 11.2459 18.5617C11.1785 18.6291 11.1406 18.7205 11.1406 18.8158V20.125H11.8594Z" fill="url(#paint21_linear_857_12729)"/>
<path d="M16.1235 18.79L15.4687 17.6561C15.4207 17.5743 15.3423 17.5147 15.2505 17.4905C15.1588 17.4662 15.0612 17.4792 14.979 17.5267C14.8968 17.5741 14.8367 17.6521 14.8119 17.7437C14.787 17.8353 14.7994 17.933 14.8463 18.0155L15.5011 19.1493L16.1235 18.79Z" fill="url(#paint22_linear_857_12729)"/>
<path d="M19.1493 15.5013L18.0155 14.8465C17.933 14.7996 17.8353 14.7873 17.7437 14.8121C17.6521 14.837 17.5741 14.8971 17.5267 14.9792C17.4792 15.0614 17.4662 15.159 17.4905 15.2508C17.5147 15.3425 17.5743 15.421 17.6561 15.469L18.79 16.1237L19.1493 15.5013Z" fill="url(#paint23_linear_857_12729)"/>
<path d="M20.1251 11.1406H18.8159C18.7206 11.1406 18.6292 11.1785 18.5618 11.2459C18.4944 11.3133 18.4565 11.4047 18.4565 11.5C18.4565 11.5953 18.4944 11.6867 18.5618 11.7541C18.6292 11.8215 18.7206 11.8594 18.8159 11.8594H20.1251V11.1406Z" fill="url(#paint24_linear_857_12729)"/>
<path d="M18.79 6.87622L17.6561 7.531C17.5743 7.579 17.5147 7.65742 17.4905 7.74917C17.4662 7.84092 17.4792 7.93854 17.5267 8.02072C17.5741 8.1029 17.6521 8.16298 17.7437 8.18785C17.8353 8.21271 17.933 8.20034 18.0155 8.15344L19.1493 7.49866L18.79 6.87622Z" fill="url(#paint25_linear_857_12729)"/>
<path d="M15.5011 3.85071L14.8463 4.98454C14.7994 5.06703 14.787 5.16473 14.8119 5.25632C14.8367 5.3479 14.8968 5.42593 14.979 5.47338C15.0612 5.52084 15.1588 5.53385 15.2505 5.5096C15.3423 5.48534 15.4207 5.42578 15.4687 5.34391L16.1235 4.21008L15.5011 3.85071Z" fill="url(#paint26_linear_857_12729)"/>
<defs>
<linearGradient id="paint0_linear_857_12729" x1="5.75" y1="11.5" x2="17.25" y2="11.5" gradientUnits="userSpaceOnUse">
<stop stop-color="#F4F42A"/>
<stop offset="1" stop-color="#FFB92B"/>
</linearGradient>
<linearGradient id="paint1_linear_857_12729" x1="10.4395" y1="9.59427" x2="8.38928" y2="6.70633" gradientUnits="userSpaceOnUse">
<stop stop-color="#FEFFC0" stop-opacity="0"/>
<stop offset="1" stop-color="#F8FF9B"/>
</linearGradient>
<linearGradient id="paint2_linear_857_12729" x1="11.8594" y1="2.45166" x2="11.1406" y2="2.45166" gradientUnits="userSpaceOnUse">
<stop stop-color="#F4F42A"/>
<stop offset="1" stop-color="#FFB92B"/>
</linearGradient>
<linearGradient id="paint3_linear_857_12729" x1="7.60571" y1="4.14756" x2="7.14823" y2="4.41206" gradientUnits="userSpaceOnUse">
<stop stop-color="#F4F42A"/>
<stop offset="1" stop-color="#FFB92B"/>
</linearGradient>
<linearGradient id="paint4_linear_857_12729" x1="3.84116" y1="6.66817" x2="3.47387" y2="7.30462" gradientUnits="userSpaceOnUse">
<stop stop-color="#F4F42A"/>
<stop offset="1" stop-color="#FFB92B"/>
</linearGradient>
<linearGradient id="paint5_linear_857_12729" x1="3.18536" y1="11.1406" x2="3.18536" y2="11.795" gradientUnits="userSpaceOnUse">
<stop stop-color="#F4F42A"/>
<stop offset="1" stop-color="#FFB92B"/>
</linearGradient>
<linearGradient id="paint6_linear_857_12729" x1="3.51216" y1="15.7622" x2="3.82554" y2="16.3048" gradientUnits="userSpaceOnUse">
<stop stop-color="#F4F42A"/>
<stop offset="1" stop-color="#FFB92B"/>
</linearGradient>
<linearGradient id="paint7_linear_857_12729" x1="7.08704" y1="18.5528" x2="7.64443" y2="18.8744" gradientUnits="userSpaceOnUse">
<stop stop-color="#F4F42A"/>
<stop offset="1" stop-color="#FFB92B"/>
</linearGradient>
<linearGradient id="paint8_linear_857_12729" x1="11.1406" y1="20.5483" x2="11.8594" y2="20.5483" gradientUnits="userSpaceOnUse">
<stop stop-color="#F4F42A"/>
<stop offset="1" stop-color="#FFB92B"/>
</linearGradient>
<linearGradient id="paint9_linear_857_12729" x1="15.346" y1="18.8802" x2="15.9684" y2="18.5208" gradientUnits="userSpaceOnUse">
<stop stop-color="#F4F42A"/>
<stop offset="1" stop-color="#FFB92B"/>
</linearGradient>
<linearGradient id="paint10_linear_857_12729" x1="19.1563" y1="16.3357" x2="19.516" y2="15.7129" gradientUnits="userSpaceOnUse">
<stop stop-color="#F4F42A"/>
<stop offset="1" stop-color="#FFB92B"/>
</linearGradient>
<linearGradient id="paint11_linear_857_12729" x1="19.8146" y1="11.8594" x2="19.8146" y2="11.1406" gradientUnits="userSpaceOnUse">
<stop stop-color="#F4F42A"/>
<stop offset="1" stop-color="#FFB92B"/>
</linearGradient>
<linearGradient id="paint12_linear_857_12729" x1="19.5164" y1="7.28702" x2="19.1566" y2="6.66422" gradientUnits="userSpaceOnUse">
<stop stop-color="#F4F42A"/>
<stop offset="1" stop-color="#FFB92B"/>
</linearGradient>
<linearGradient id="paint13_linear_857_12729" x1="15.9686" y1="4.47926" x2="15.3461" y2="4.11989" gradientUnits="userSpaceOnUse">
<stop stop-color="#F4F42A"/>
<stop offset="1" stop-color="#FFB92B"/>
</linearGradient>
<linearGradient id="paint14_linear_857_12729" x1="11.5001" y1="12.9375" x2="11.5001" y2="17.25" gradientUnits="userSpaceOnUse">
<stop stop-color="#FFB92B" stop-opacity="0"/>
<stop offset="1" stop-color="#FFB92B"/>
</linearGradient>
<linearGradient id="paint15_linear_857_12729" x1="1.27762e-07" y1="2.875" x2="0.359375" y2="4.54358" gradientUnits="userSpaceOnUse">
<stop stop-color="#FFB92B" stop-opacity="0"/>
<stop offset="1" stop-color="#FFB92B"/>
</linearGradient>
<linearGradient id="paint16_linear_857_12729" x1="-2.77161" y1="9.78054" x2="-1.62609" y2="11.0459" gradientUnits="userSpaceOnUse">
<stop stop-color="#FFB92B" stop-opacity="0"/>
<stop offset="1" stop-color="#FFB92B"/>
</linearGradient>
<linearGradient id="paint17_linear_857_12729" x1="-1.7199" y1="17.1469" x2="-0.0951787" y2="17.67" gradientUnits="userSpaceOnUse">
<stop stop-color="#FFB92B" stop-opacity="0"/>
<stop offset="1" stop-color="#FFB92B"/>
</linearGradient>
<linearGradient id="paint18_linear_857_12729" x1="2.875" y1="23" x2="4.54358" y2="22.6406" gradientUnits="userSpaceOnUse">
<stop stop-color="#FFB92B" stop-opacity="0"/>
<stop offset="1" stop-color="#FFB92B"/>
</linearGradient>
<linearGradient id="paint19_linear_857_12729" x1="9.78041" y1="25.7718" x2="11.0458" y2="24.6262" gradientUnits="userSpaceOnUse">
<stop stop-color="#FFB92B" stop-opacity="0"/>
<stop offset="1" stop-color="#FFB92B"/>
</linearGradient>
<linearGradient id="paint20_linear_857_12729" x1="17.147" y1="24.7195" x2="17.67" y2="23.0948" gradientUnits="userSpaceOnUse">
<stop stop-color="#FFB92B" stop-opacity="0"/>
<stop offset="1" stop-color="#FFB92B"/>
</linearGradient>
<linearGradient id="paint21_linear_857_12729" x1="23" y1="20.125" x2="22.6406" y2="18.4564" gradientUnits="userSpaceOnUse">
<stop stop-color="#FFB92B" stop-opacity="0"/>
<stop offset="1" stop-color="#FFB92B"/>
</linearGradient>
<linearGradient id="paint22_linear_857_12729" x1="25.7716" y1="13.2195" x2="24.6261" y2="11.9542" gradientUnits="userSpaceOnUse">
<stop stop-color="#FFB92B" stop-opacity="0"/>
<stop offset="1" stop-color="#FFB92B"/>
</linearGradient>
<linearGradient id="paint23_linear_857_12729" x1="24.7195" y1="5.85323" x2="23.0948" y2="5.33017" gradientUnits="userSpaceOnUse">
<stop stop-color="#FFB92B" stop-opacity="0"/>
<stop offset="1" stop-color="#FFB92B"/>
</linearGradient>
<linearGradient id="paint24_linear_857_12729" x1="20.1251" y1="-5.40116e-07" x2="18.4565" y2="0.359375" gradientUnits="userSpaceOnUse">
<stop stop-color="#FFB92B" stop-opacity="0"/>
<stop offset="1" stop-color="#FFB92B"/>
</linearGradient>
<linearGradient id="paint25_linear_857_12729" x1="13.2195" y1="-2.77185" x2="11.9542" y2="-1.62633" gradientUnits="userSpaceOnUse">
<stop stop-color="#FFB92B" stop-opacity="0"/>
<stop offset="1" stop-color="#FFB92B"/>
</linearGradient>
<linearGradient id="paint26_linear_857_12729" x1="5.85299" y1="-1.71946" x2="5.32992" y2="-0.0947453" gradientUnits="userSpaceOnUse">
<stop stop-color="#FFB92B" stop-opacity="0"/>
<stop offset="1" stop-color="#FFB92B"/>
</linearGradient>
</defs>
</svg>
