<svg width="25" height="24" viewBox="0 0 25 24" fill="none" xmlns="http://www.w3.org/2000/svg">
<path d="M8.5 5.75C8.09 5.75 7.75 5.41 7.75 5V2C7.75 1.59 8.09 1.25 8.5 1.25C8.91 1.25 9.25 1.59 9.25 2V5C9.25 5.41 8.91 5.75 8.5 5.75Z" fill="#2082E4"/>
<path d="M16.5 5.75C16.09 5.75 15.75 5.41 15.75 5V2C15.75 1.59 16.09 1.25 16.5 1.25C16.91 1.25 17.25 1.59 17.25 2V5C17.25 5.41 16.91 5.75 16.5 5.75Z" fill="#2082E4"/>
<path d="M21 9.83997H4C3.59 9.83997 3.25 9.49997 3.25 9.08997C3.25 8.67997 3.59 8.33997 4 8.33997H21C21.41 8.33997 21.75 8.67997 21.75 9.08997C21.75 9.49997 21.41 9.83997 21 9.83997Z" fill="#2082E4"/>
<path d="M16.5 22.75H8.5C4.85 22.75 2.75 20.65 2.75 17V8.5C2.75 4.85 4.85 2.75 8.5 2.75H16.5C20.15 2.75 22.25 4.85 22.25 8.5V17C22.25 20.65 20.15 22.75 16.5 22.75ZM8.5 4.25C5.64 4.25 4.25 5.64 4.25 8.5V17C4.25 19.86 5.64 21.25 8.5 21.25H16.5C19.36 21.25 20.75 19.86 20.75 17V8.5C20.75 5.64 19.36 4.25 16.5 4.25H8.5Z" fill="#2082E4"/>
<path d="M9 14.5C8.87 14.5 8.74 14.47 8.62 14.42C8.5 14.37 8.39001 14.3 8.29001 14.21C8.20001 14.11 8.12999 14 8.07999 13.88C8.02999 13.76 8 13.63 8 13.5C8 13.24 8.11001 12.98 8.29001 12.79C8.39001 12.7 8.5 12.63 8.62 12.58C8.8 12.5 9.00001 12.48 9.20001 12.52C9.26001 12.53 9.32 12.55 9.38 12.58C9.44 12.6 9.5 12.63 9.56 12.67C9.61 12.71 9.65999 12.75 9.70999 12.79C9.74999 12.84 9.79999 12.89 9.82999 12.94C9.86999 13 9.90001 13.06 9.92001 13.12C9.95001 13.18 9.97001 13.24 9.98001 13.3C9.99001 13.37 10 13.43 10 13.5C10 13.76 9.88999 14.02 9.70999 14.21C9.51999 14.39 9.26 14.5 9 14.5Z" fill="#2082E4"/>
<path d="M12.5 14.5C12.24 14.5 11.98 14.39 11.79 14.21C11.75 14.16 11.71 14.11 11.67 14.06C11.63 14 11.6 13.94 11.58 13.88C11.55 13.82 11.53 13.76 11.52 13.7C11.51 13.63 11.5 13.57 11.5 13.5C11.5 13.37 11.53 13.24 11.58 13.12C11.63 13 11.7 12.89 11.79 12.79C12.07 12.51 12.52 12.42 12.88 12.58C13.01 12.63 13.11 12.7 13.21 12.79C13.39 12.98 13.5 13.24 13.5 13.5C13.5 13.57 13.49 13.63 13.48 13.7C13.47 13.76 13.45 13.82 13.42 13.88C13.4 13.94 13.37 14 13.33 14.06C13.29 14.11 13.25 14.16 13.21 14.21C13.11 14.3 13.01 14.37 12.88 14.42C12.76 14.47 12.63 14.5 12.5 14.5Z" fill="#2082E4"/>
<path d="M9 18C8.87 18 8.74 17.97 8.62 17.92C8.5 17.87 8.39001 17.8 8.29001 17.71C8.20001 17.61 8.12999 17.51 8.07999 17.38C8.02999 17.26 8 17.13 8 17C8 16.74 8.11001 16.48 8.29001 16.29C8.39001 16.2 8.5 16.13 8.62 16.08C8.99 15.92 9.42999 16.01 9.70999 16.29C9.74999 16.34 9.79999 16.39 9.82999 16.44C9.86999 16.5 9.90001 16.56 9.92001 16.62C9.95001 16.68 9.97001 16.74 9.98001 16.81C9.99001 16.87 10 16.94 10 17C10 17.26 9.88999 17.52 9.70999 17.71C9.51999 17.89 9.26 18 9 18Z" fill="#2082E4"/>
</svg>
